<svg width="220" height="65" viewBox="0 0 220 65" fill="none" xmlns="http://www.w3.org/2000/svg">
<g clip-path="url(#clip0_5_2756)">
<path fill-rule="evenodd" clip-rule="evenodd" d="M78.7213 36.9784V48.2062C79.3885 53.5422 99.2016 51.1206 102.405 50.4813C103.356 50.2915 103.764 50.2959 103.936 49.1517C104.178 47.5469 104.069 43.1104 104.069 41.2584C104.069 40.2076 103.208 40.3809 102.456 40.3946C100.568 40.3589 92.1271 40.1911 90.9945 40.4557C90.771 41.4173 90.7145 43.7387 91.1276 44.6022L96.732 44.6012C98.6673 44.5827 98.2596 44.6637 98.0648 47.0101C96.2456 47.435 85.2409 47.354 84.7864 47.0815C84.3582 46.8245 84.5906 39.3314 84.5906 38.4494C85.193 38.288 84.9421 37.9095 86.7203 37.9095L102.875 37.9219C104.211 37.9445 104.068 37.8302 104.068 34.5702C104.068 34.1343 104.024 33.7002 103.986 33.4486C103.919 33.0168 103.999 32.6973 103.534 32.6973H82.9897C81.8714 32.6973 79.792 34.2898 79.27 35.3884C78.9531 36.0549 78.7206 36.2965 78.7206 36.9777L78.7213 36.9784Z" fill="#1B144E"/>
<path fill-rule="evenodd" clip-rule="evenodd" d="M104.869 52.8964H110.606C111.732 51.4604 112.533 50.3237 113.007 49.5522H124.747C125.521 50.4885 126.314 51.7676 127.282 52.8964H132.885C133.445 52.8964 133.606 52.224 133.452 51.8101C131.251 47.9405 123.288 32.6984 122.746 32.6984C121.612 32.6984 115.364 32.7739 114.636 32.7639C113.639 33.6706 105.016 49.6178 104.32 51.69C104.18 52.107 104.271 52.8964 104.87 52.8964H104.869ZM118.968 39.2446L120.99 42.7558L123.012 46.2671H118.968H114.924L116.946 42.7558L118.968 39.2446Z" fill="#1B144E"/>
<path fill-rule="evenodd" clip-rule="evenodd" d="M184.914 32.9657C185.122 33.7496 193.061 42.0276 193.329 42.3179C193.482 42.4435 193.301 42.3865 193.585 42.4627C193.134 44.1588 186.765 49.6833 184.853 51.7645C184.58 52.0607 184.647 52.2721 184.647 52.7622C185.064 52.7972 185.121 52.896 185.581 52.896H192.252C192.676 52.896 192.991 52.6709 193.266 52.4423C193.487 52.259 193.432 52.2872 193.604 52.1115C194.638 51.0201 197.369 47.8328 198.522 47.2782C199.359 47.8403 200.611 49.3785 201.356 50.1878C201.606 50.4589 201.772 50.5897 202.008 50.8718C202.296 51.2171 202.391 51.2922 202.723 51.6265C202.903 51.8084 202.925 51.8156 203.059 51.9584L203.864 52.6225C204.18 52.8057 204.018 52.8957 204.392 52.8957C206.192 52.8957 210.642 53.1091 212.129 52.7618C212.395 51.6505 211.987 51.91 210.026 49.9218L207.76 47.5115C206.406 46.1511 204.057 44.3706 203.191 42.7294C203.154 42.4023 209.674 35.5541 211.416 33.5876C211.648 33.3271 211.767 33.3244 211.863 32.965C211.622 32.8034 211.628 32.6973 211.329 32.6973H203.725C203.174 32.6973 198.881 37.821 198.667 38.0595C198.349 38.2421 198.477 38.1817 197.988 38.1817C197.496 37.4129 193.728 32.6973 193.052 32.6973H185.448C185.232 32.6973 185.024 32.8579 184.915 32.965L184.914 32.9657Z" fill="#1B144E"/>
<path fill-rule="evenodd" clip-rule="evenodd" d="M153.83 47.6794C151.606 47.6794 149.383 47.6794 147.159 47.6794C144.922 47.6794 143.063 47.5455 140.756 47.5455V38.3159C140.756 36.9788 140.748 35.6393 140.756 34.3025C140.768 32.2375 141.346 32.7059 136.22 32.6977C133.707 32.6936 134.219 32.2948 134.219 36.8442C134.219 37.4977 134.135 51.6787 134.267 52.1784C134.405 52.7042 134.775 52.8579 135.281 52.9008L153.02 52.8864C154.275 52.7533 153.965 52.0655 153.963 50.7558L153.829 47.6791L153.83 47.6794Z" fill="#1B144E"/>
<path fill-rule="evenodd" clip-rule="evenodd" d="M213.196 33.2331V51.8259C213.196 52.6232 213.735 52.896 214.531 52.896H219.067C219.493 52.896 220 52.4306 220 52.0933V33.2327C220 32.8216 219.609 32.6977 219.2 32.6977H213.73C213.418 32.6977 213.196 32.9197 213.196 33.2327V33.2331Z" fill="#1B144E"/>
<path fill-rule="evenodd" clip-rule="evenodd" d="M153.83 47.6794C153.369 47.0482 152.248 47.2782 150.895 47.2782C148.572 47.2782 142.285 47.4704 140.889 47.1443L140.863 38.6103C140.803 38.3213 140.858 38.4778 140.756 38.3162V47.5459C143.063 47.5459 144.922 47.6797 147.159 47.6797C149.383 47.6797 151.606 47.6797 153.83 47.6797V47.6794Z" fill="#1B144E"/>
<path d="M42.0788 63.4065C56.5382 63.4065 68.2599 51.6537 68.2599 37.1558C68.2599 22.658 56.5382 10.9052 42.0788 10.9052C27.6194 10.9052 15.8977 22.658 15.8977 37.1558C15.8977 51.6537 27.6194 63.4065 42.0788 63.4065Z" fill="#1B144E"/>
<path fill-rule="evenodd" clip-rule="evenodd" d="M32.3232 48.8318V55.1097H30.8222V48.8318H28.4878V32.7365H30.8222V18.0739H32.3232V32.7365H35.0748V48.8318H32.3232Z" fill="#3853A4"/>
<path fill-rule="evenodd" clip-rule="evenodd" d="M41.245 24.0515H42.7459V28.1771H45.3723V47.19H42.7459V50.7205H41.245V47.19H38.7853V28.1771H41.245V24.0515Z" fill="#F6EB14"/>
<path fill-rule="evenodd" clip-rule="evenodd" d="M50.0001 22.4837H52.4601V17.4881H53.9607V22.4837H56.5874V41.1685H53.9607V44.2872H52.4601V41.1685H50.0001V22.4837Z" fill="#8CC640"/>
<path fill-rule="evenodd" clip-rule="evenodd" d="M14.4926 48.8548C12.6367 51.1385 11.0803 53.3998 12.2413 55.4594C13.7601 57.975 15.8894 58.2856 18.1619 58.0797C34.8164 56.5679 58.8698 41.6792 70.774 30.2119C72.9099 28.2862 73.8053 26.2569 73.9409 24.1644C74.0857 21.9174 73.1471 21.4709 71.1077 20.5141C79.08 22.354 76.2531 28.3686 71.6 33.4685C63.0451 42.8444 38.4399 55.8671 26.9098 59.4436C22.5795 60.7865 10.5004 64.0023 9.62074 57.1665C9.16583 53.6339 12.0079 51.4875 14.4926 48.8552V48.8548Z" fill="#3853A4"/>
<path fill-rule="evenodd" clip-rule="evenodd" d="M67.2813 20.4993C70.2883 20.1325 74.5902 20.4784 75.5336 24.0322C76.4075 27.3225 74.3664 30.4511 71.0801 33.776C60.2387 43.0071 49.6938 48.9218 37.4134 55.3736C33.3929 57.486 13.5113 65.2114 10.0976 58.6728C9.13268 56.8253 9.6088 54.9552 10.5172 53.1922C8.87664 55.1406 7.44998 57.2073 7.53966 60.107C8.0839 64.6455 12.2698 65.59 18.3194 64.6956C30.9742 62.8248 43.9046 56.9931 54.8575 50.577C61.9464 45.684 68.427 41.858 74.3832 35.6049C78.8186 30.9484 83.6719 24.7365 80.248 21.254C76.5796 18.5867 71.3501 19.2316 67.2813 20.5V20.4993Z" fill="#1D1752"/>
<path fill-rule="evenodd" clip-rule="evenodd" d="M63.6763 0L64.8288 6.08219L70.5132 7.3153L64.8288 8.54842L63.6763 14.6306L62.5235 8.54842L56.8391 7.3153L62.5235 6.08219L63.6763 0Z" fill="#3853A4"/>
<path fill-rule="evenodd" clip-rule="evenodd" d="M7.39618 16.9939L7.91612 19.7378L10.4812 20.2944L7.91612 20.8508L7.39618 23.595L6.87625 20.8508L4.31146 20.2944L6.87625 19.7378L7.39618 16.9939Z" fill="#3853A4"/>
<path fill-rule="evenodd" clip-rule="evenodd" d="M4.84444 39.2051L5.66114 43.5146L9.68922 44.3884L5.66114 45.2622L4.84444 49.5718L4.02807 45.2622L0 44.3884L4.02807 43.5146L4.84444 39.2051Z" fill="#3853A4"/>
<path fill-rule="evenodd" clip-rule="evenodd" d="M66.4674 53.4214L67.6804 56.5281L70.8134 56.6149L67.9248 57.8343L67.917 61.1706L66.7039 58.0639L63.5706 57.9771L66.4595 56.7577L66.4674 53.4214Z" fill="#3853A4"/>
<path d="M83.0311 19.6942C84.7807 19.6942 86.199 18.2721 86.199 16.5179C86.199 14.7636 84.7807 13.3416 83.0311 13.3416C81.2815 13.3416 79.8632 14.7636 79.8632 16.5179C79.8632 18.2721 81.2815 19.6942 83.0311 19.6942Z" fill="#8CC640"/>
<path fill-rule="evenodd" clip-rule="evenodd" d="M155.365 52.8964H161.101C162.228 51.4604 163.029 50.3237 163.503 49.5522H175.243C176.017 50.4885 176.809 51.7676 177.777 52.8964H183.381C183.94 52.8964 184.101 52.224 183.948 51.8101C181.747 47.9405 173.783 32.6984 173.242 32.6984C172.108 32.6984 165.86 32.7739 165.132 32.7639C164.134 33.6706 155.511 49.6178 154.816 51.69C154.676 52.107 154.767 52.8964 155.365 52.8964H155.365ZM169.38 38.691L171.402 42.2023L173.424 45.7135H169.38H165.337L167.358 42.2023L169.38 38.691Z" fill="#1B144E"/>
<path fill-rule="evenodd" clip-rule="evenodd" d="M42.4598 14.1656L42.7654 15.6743L44.2732 15.9801L42.7654 16.2859L42.4598 17.7946L42.1541 16.2859L40.6463 15.9801L42.1541 15.6743L42.4598 14.1656Z" fill="#FEFEFE"/>
</g>
<defs>
<clipPath id="clip0_5_2756">
<rect width="220" height="65" fill="white"/>
</clipPath>
</defs>
</svg>
