<svg width="123" height="138" viewBox="0 0 123 138" fill="none" xmlns="http://www.w3.org/2000/svg">
<g clip-path="url(#clip0_5_2812)">
<path d="M86.9749 27.015L6.33954 35.4735L17.1598 137.876L97.7953 129.417L86.9749 27.015Z" fill="#E0E0E0"/>
<path d="M90.0016 29.313L10.1648 41.2168L24.2312 134.873L104.068 122.969L90.0016 29.313Z" fill="#EBEBEB"/>
<path d="M121.451 37.6598C121.451 37.6598 118.291 35.5779 114.439 43.1095C112.406 46.9459 110.632 50.9127 109.127 54.9838C109.127 54.9838 108.109 56.5619 107.021 55.5307C105.932 54.4996 104.443 51.5739 102.594 52.1002C100.676 52.6462 100.045 54.7787 100.41 57.9123C100.776 61.046 101.324 67.9407 101.372 68.5635C101.42 69.1863 101.066 70.0779 100.212 69.4935C99.3574 68.9091 94.4443 63.4576 91.9873 65.9347C89.5302 68.4118 91.9873 76.9754 92.2392 77.9167C92.4911 78.8579 92.305 79.2597 91.8566 79.4929C91.4083 79.7261 89.9297 77.7378 88.4728 76.245C87.0159 74.7521 85.0542 73.2752 83.7571 74.8224C82.4599 76.3695 82.0445 82.7951 88.1814 93.2309L91.3425 97.8807L96.9953 97.5679C109.053 96.1631 113.95 91.9656 114.41 90.0008C114.869 88.0359 112.507 87.3691 110.43 87.1069C108.353 86.8446 105.87 86.8652 105.787 86.368C105.703 85.8707 105.914 85.482 106.821 85.1139C107.728 84.7459 116.067 81.5448 116.573 78.0993C117.078 74.6538 109.751 74.0282 108.771 73.6976C107.791 73.367 108.301 72.5475 108.818 72.2151C109.335 71.8826 115.2 68.1608 117.936 66.565C120.671 64.9691 121.994 63.1822 121.277 61.3279C120.585 59.54 117.344 60.1169 115.862 59.8725C114.38 59.6281 115.032 57.8683 115.032 57.8683C117.388 54.22 119.498 50.4196 121.348 46.4923C125.062 38.8923 121.395 37.6186 121.395 37.6186" fill="#8CC640"/>
<path d="M117.989 44.3982C117.989 44.3982 117.968 44.4544 117.92 44.5611L117.699 45.0294L116.834 46.8332C116.082 48.3991 114.977 50.657 113.6 53.4414C110.851 59.0119 106.987 66.6755 102.697 75.1249C98.4071 83.5743 94.5195 91.2332 91.7429 96.7878L88.4596 103.371L87.5657 105.159L87.3289 105.623C87.2744 105.727 87.2433 105.779 87.2433 105.779C87.2433 105.779 87.264 105.722 87.3129 105.616L87.5338 105.147L88.3985 103.344C89.1505 101.778 90.2559 99.5206 91.632 96.7354C94.3813 91.1649 98.2455 83.5012 102.541 75.0481C106.837 66.595 110.719 58.9444 113.493 53.3889L116.777 46.806L117.67 45.0163L117.907 44.5527C117.957 44.4534 117.989 44.3982 117.989 44.3982Z" fill="white"/>
<path d="M104.513 56.2762C104.574 56.3976 104.622 56.5254 104.655 56.6574C104.737 56.9055 104.843 57.268 104.973 57.7166C105.228 58.6147 105.549 59.864 105.878 61.2482L106.708 64.7968L106.965 65.87C107.006 65.9994 107.033 66.1329 107.044 66.2681C106.982 66.1471 106.933 66.0196 106.9 65.8878C106.819 65.6396 106.712 65.2772 106.588 64.8267C106.341 63.9258 106.037 62.6727 105.708 61.2885L104.853 57.7475L104.59 56.6751C104.55 56.5454 104.524 56.4116 104.513 56.2762Z" fill="white"/>
<path d="M113.23 64.875C116.395 63.9693 118.951 63.1975 118.937 63.1513C118.924 63.105 116.347 63.8019 113.182 64.7076C110.016 65.6134 107.461 66.3852 107.474 66.4314C107.488 66.4776 110.065 65.7808 113.23 64.875Z" fill="white"/>
<path d="M100.38 79.0489C100.517 79.0276 100.657 79.0213 100.796 79.0302H101.923C102.878 79.0302 104.197 79.0302 105.652 78.9731C107.107 78.916 108.423 78.826 109.375 78.7511L110.503 78.6631C110.641 78.6438 110.781 78.6398 110.92 78.6509C110.787 78.6926 110.65 78.7196 110.511 78.7314C110.247 78.7717 109.862 78.8251 109.383 78.8747C108.433 78.9815 107.115 79.0958 105.655 79.1482C104.195 79.2006 102.874 79.1875 101.918 79.1548C101.44 79.136 101.053 79.1164 100.79 79.0958C100.652 79.095 100.515 79.0793 100.38 79.0489Z" fill="white"/>
<path d="M95.6051 70.5265C95.691 70.6223 95.7651 70.7279 95.826 70.8412L96.3712 71.7309C96.8099 72.796 97.3961 73.7947 98.1129 74.6978C98.785 75.8619 99.3847 76.9202 99.8105 77.6947L100.308 78.6116C100.353 78.5954 100.403 78.5968 100.448 78.6155C100.492 78.6343 100.528 78.669 100.549 78.7128C100.569 78.7566 100.572 78.8064 100.557 78.8523C100.542 78.8982 100.511 78.9369 100.469 78.9608C100.427 78.9847 100.377 78.9921 100.33 78.9815C100.283 78.9709 100.241 78.943 100.214 78.9035C100.186 78.8639 100.174 78.8154 100.181 78.7676C100.187 78.7199 100.211 78.6762 100.248 78.6453L99.7033 77.7556C99.2493 77.0007 98.6327 75.9518 97.9607 74.7886C97.2886 73.6255 96.6898 72.5672 96.2631 71.7917L95.7659 70.8749C95.6986 70.7655 95.6447 70.6485 95.6051 70.5265Z" fill="white"/>
<path d="M87.8365 80.9192C87.9429 81.045 88.0373 81.1805 88.1184 81.3238L88.8215 82.4607C89.409 83.4244 90.2098 84.7627 91.084 86.2453C91.9581 87.7278 92.743 89.0764 93.3032 90.057L93.9612 91.222C94.048 91.3613 94.1217 91.5083 94.1811 91.6612C94.0747 91.5354 93.9803 91.4 93.8991 91.2567L93.196 90.1197C92.6086 89.156 91.8077 87.8177 90.9326 86.3342C90.0575 84.8508 89.2736 83.504 88.7144 82.5235L88.0564 81.3584C87.9696 81.2191 87.896 81.0721 87.8365 80.9192Z" fill="#EBEBEB"/>
<path d="M94.0956 91.3625C94.2696 91.3348 94.4457 91.3223 94.622 91.325L96.0563 91.2782C97.267 91.2379 98.9391 91.1752 100.783 91.0544C102.628 90.9335 104.295 90.7856 105.501 90.6676L106.93 90.529C107.104 90.5035 107.28 90.4932 107.456 90.4981C107.287 90.5457 107.113 90.5786 106.938 90.5964C106.603 90.6488 106.117 90.7163 105.515 90.7902C104.311 90.9391 102.643 91.1096 100.796 91.2286C98.9476 91.3475 97.2726 91.3924 96.0591 91.4018C95.4529 91.4018 94.9622 91.4018 94.6229 91.3934C94.4466 91.3983 94.2701 91.388 94.0956 91.3625Z" fill="#EBEBEB"/>
<path d="M0.440806 89.0221C0.999007 88.7398 1.60863 88.5727 2.23319 88.5307C2.85774 88.4887 3.48439 88.5727 4.0756 88.7777C5.25717 89.196 6.32691 89.8784 7.20281 90.7725C8.90408 92.6201 10.0933 94.8771 10.6534 97.3216C8.02151 97.8461 5.29565 96.343 3.96562 95.4935C1.85825 94.1515 -1.13267 90.4512 0.440806 89.0211" fill="#8CC640"/>
<path d="M15.2272 97.8751C14.5991 97.567 14.064 97.099 13.6761 96.5184C13.2881 95.9378 13.0612 95.2653 13.0183 94.5691C12.988 93.8729 13.0971 93.1777 13.3392 92.524C13.5812 91.8702 13.9514 91.271 14.4282 90.7612C14.6219 90.5035 14.8697 90.2911 15.1543 90.1387C15.4389 89.9864 15.7534 89.8977 16.076 89.879C16.3767 89.9117 16.6632 90.024 16.9058 90.2041C17.1484 90.3843 17.3383 90.6257 17.4558 90.9035C17.6832 91.4636 17.7581 92.0735 17.6729 92.6717C17.4755 94.7227 16.9069 96.6716 15.2291 97.8751" fill="#8CC640"/>
<path d="M19.4805 104.391C19.3545 104.283 19.2384 104.164 19.1336 104.036L18.2256 103.033C17.1864 101.952 16.3294 100.711 15.6878 99.3576C15.0644 97.9838 14.8192 96.4694 14.9772 94.97C15.0324 94.519 15.1409 94.076 15.3005 93.6504C15.3434 93.5349 15.3923 93.4217 15.4471 93.3114C15.4838 93.2355 15.5054 93.1971 15.5111 93.199C15.3139 93.7783 15.1762 94.376 15.1003 94.9831C14.982 96.4593 15.2407 97.9414 15.8523 99.2911C16.4889 100.627 17.321 101.862 18.3215 102.955C18.69 103.391 18.9879 103.744 19.1872 103.994C19.2972 104.117 19.3954 104.25 19.4805 104.391Z" fill="white"/>
<path d="M2.96832 91.6397C3.03487 91.6699 3.0979 91.7073 3.15631 91.7511L3.66953 92.0986C4.11318 92.403 4.74953 92.8478 5.53062 93.4097C7.09376 94.5336 9.23026 96.107 11.5463 97.9051C13.8623 99.7033 15.9302 101.37 17.406 102.604C18.1438 103.219 18.7369 103.722 19.143 104.075L19.6073 104.484C19.628 104.466 19.6546 104.457 19.682 104.458C19.7094 104.458 19.7354 104.469 19.755 104.488C19.7746 104.507 19.7863 104.533 19.7878 104.56C19.7893 104.588 19.7804 104.614 19.7629 104.635C19.7455 104.656 19.7207 104.67 19.6936 104.674C19.6664 104.677 19.6389 104.671 19.6165 104.655C19.594 104.64 19.5783 104.616 19.5724 104.589C19.5666 104.563 19.571 104.535 19.5848 104.511L19.0997 104.127L17.3279 102.699C15.8325 101.493 13.7561 99.8372 11.4391 98.0428C9.12217 96.2484 6.99695 94.6582 5.45355 93.5128L3.62628 92.1567L3.1328 91.782C3.07299 91.7406 3.01785 91.6929 2.96832 91.6397Z" fill="white"/>
<path d="M14.2524 101.525C12.9504 100.833 11.5018 100.461 10.0266 100.438C8.55134 100.416 7.09198 100.744 5.76938 101.396C5.10107 101.733 4.39518 102.3 4.45345 103.045C4.51173 103.789 5.30504 104.241 6.02505 104.45C7.53608 104.862 9.13573 104.819 10.6223 104.326C12.1089 103.834 13.4158 102.914 14.3784 101.682" fill="#8CC640"/>
<path d="M7.77429 102.518C7.90318 102.43 8.04045 102.355 8.18411 102.294C8.34605 102.208 8.51304 102.133 8.68417 102.068C8.88438 101.993 9.10621 101.887 9.36751 101.816C9.6469 101.722 9.93118 101.644 10.2191 101.581C10.5486 101.503 10.8821 101.443 11.2183 101.402C11.9901 101.311 12.7699 101.306 13.5428 101.389C14.3134 101.485 15.0704 101.67 15.7986 101.939C16.1156 102.058 16.4253 102.196 16.7264 102.351C16.9907 102.481 17.2472 102.627 17.4943 102.787C17.7008 102.915 17.9004 103.054 18.0921 103.203C18.2412 103.309 18.3831 103.425 18.517 103.55C18.6396 103.646 18.7523 103.755 18.8535 103.874C18.8281 103.904 18.3421 103.445 17.4285 102.892C17.1802 102.741 16.9239 102.603 16.6606 102.48C16.3615 102.333 16.0546 102.202 15.7413 102.089C15.0217 101.833 14.2764 101.656 13.5183 101.561C12.7585 101.48 11.9922 101.48 11.2324 101.561C10.9008 101.598 10.5714 101.651 10.2454 101.721C9.93618 101.776 9.65702 101.862 9.39947 101.932C8.38056 102.243 7.79027 102.556 7.77429 102.518Z" fill="white"/>
<path d="M95.5929 113.769C93.3991 112.364 92.6095 110.562 92.2664 107.988C92.1029 106.695 92.2196 105.382 92.6088 104.138C92.9979 102.894 93.6505 101.748 94.5223 100.776C95.9811 99.1713 98.0321 98.0755 99.0914 96.1875C100.219 94.1721 100.076 91.4908 101.688 89.8331C102.796 88.6952 104.466 88.3346 105.834 87.5273C106.899 86.7886 107.912 85.9772 108.865 85.0989C109.831 84.2156 111.08 83.7025 112.39 83.6511C113.366 83.7608 114.272 84.2078 114.951 84.9142C115.631 85.6207 116.04 86.542 116.108 87.518C116.14 88.4961 115.951 89.4689 115.554 90.3639C115.156 91.259 114.562 92.0533 113.814 92.6876C112.767 93.6448 111.464 94.3968 110.799 95.6499C109.557 98.0025 111.072 101.147 109.729 103.446C108.748 105.124 106.411 105.999 106.157 107.923C106.151 108.637 106.204 109.35 106.313 110.055C106.383 112.287 104.358 114.165 102.169 114.644C99.9381 114.97 97.6604 114.666 95.5938 113.768" fill="#49476F"/>
<path d="M108.464 91.6547C108.4 91.7488 108.327 91.8361 108.246 91.915L107.588 92.6249C107.297 92.9293 106.94 93.3011 106.554 93.7572C106.167 94.2133 105.695 94.704 105.238 95.3006C104.781 95.8972 104.242 96.5181 103.734 97.2448C103.478 97.6044 103.193 97.9632 102.937 98.3574L102.138 99.5684C100.986 101.388 99.9715 103.29 99.1036 105.26C98.2608 107.24 97.5744 109.283 97.0508 111.371C96.8299 112.337 96.6146 113.255 96.4868 114.129C96.3204 114.996 96.2377 115.814 96.1512 116.564C96.0459 117.307 96.0384 117.988 95.9896 118.583C95.9407 119.177 95.936 119.692 95.9313 120.112C95.9219 120.51 95.9134 120.831 95.9078 121.081C95.9108 121.194 95.902 121.307 95.8815 121.419C95.8605 121.307 95.8513 121.194 95.8542 121.081C95.8476 120.832 95.8382 120.51 95.8279 120.112C95.8166 119.691 95.8053 119.176 95.841 118.577C95.8768 117.979 95.8702 117.295 95.9632 116.547C96.0375 115.798 96.1099 114.972 96.2678 114.099C96.3872 113.218 96.5958 112.293 96.8111 111.318C97.3242 109.213 98.0086 107.154 98.8573 105.159C99.7308 103.177 100.758 101.265 101.93 99.4419L102.743 98.2301C103.005 97.8358 103.295 97.4808 103.555 97.1193C104.073 96.3973 104.61 95.767 105.091 95.1854C105.572 94.6038 106.045 94.1093 106.444 93.6617C106.842 93.214 107.211 92.8515 107.514 92.5575L108.213 91.8813C108.288 91.7972 108.372 91.7212 108.464 91.6547Z" fill="white"/>
<path d="M21.1853 90.5V87.5909H22.941V87.9034H21.5376V88.8864H22.8501V89.1989H21.5376V90.1875H22.9637V90.5H21.1853ZM24.5475 87.5909V90.5H24.1952V87.9602H24.1782L23.468 88.4318V88.0739L24.1952 87.5909H24.5475ZM26.333 90.5H25.4353V87.5909H26.3728C26.655 87.5909 26.8965 87.6491 27.0972 87.7656C27.298 87.8812 27.4519 88.0473 27.5589 88.2642C27.6659 88.4801 27.7194 88.7386 27.7194 89.0398C27.7194 89.3428 27.6654 89.6037 27.5574 89.8224C27.4495 90.0402 27.2923 90.2079 27.0858 90.3253C26.8794 90.4418 26.6285 90.5 26.333 90.5ZM25.7876 90.1875H26.3103C26.5508 90.1875 26.7501 90.1411 26.9083 90.0483C27.0664 89.9555 27.1843 89.8234 27.262 89.652C27.3396 89.4806 27.3785 89.2765 27.3785 89.0398C27.3785 88.8049 27.3401 88.6027 27.2634 88.4332C27.1867 88.2628 27.0721 88.1321 26.9197 88.0412C26.7672 87.9493 26.5773 87.9034 26.3501 87.9034H25.7876V90.1875ZM21.1853 95.5V92.5909H22.9296V92.9034H21.5376V93.8864H22.7989V94.1989H21.5376V95.5H21.1853ZM23.5329 95.5V92.5909H25.2773V92.9034H23.8852V93.8864H25.1466V94.1989H23.8852V95.5H23.5329ZM25.8806 95.5V92.5909H27.6249V92.9034H26.2329V93.8864H27.4942V94.1989H26.2329V95.5H25.8806Z" fill="white"/>
<path d="M97.6693 34.5365H16.9445V129.234H97.6693V34.5365Z" fill="#FAFAFA"/>
<path d="M97.6693 129.234C97.6693 128.606 97.6402 90.9635 97.5969 34.5365L97.6693 34.6086L16.953 34.618H16.9445L17.0263 34.5365C17.0216 69.501 17.0169 102.069 17.0131 129.234L16.9445 129.166L97.6693 129.234L16.9445 129.302H16.8759V129.234C16.8759 102.07 16.8674 69.5019 16.8627 34.5365V34.455H16.9567L97.6731 34.4644H97.7454V34.5365C97.6984 90.9635 97.6703 128.607 97.6693 129.234Z" fill="#263238"/>
<path d="M55.8707 78.4739C55.8707 78.4739 55.8707 78.4131 55.865 78.2988L55.8594 77.7921C55.8594 77.3426 55.8519 76.688 55.8462 75.8395C55.8396 74.1387 55.8293 71.6653 55.8171 68.5551L55.8697 68.6076L24.1934 68.6366L24.2752 68.5551C24.2752 71.9922 24.2752 75.3319 24.2752 78.4739L24.1962 78.3953L46.8368 78.4318L53.4663 78.4543L55.2522 78.4645L55.7156 78.4692C55.8199 78.4692 55.8763 78.4739 55.8763 78.4739C55.8763 78.4739 55.8274 78.4739 55.7259 78.4786L55.2719 78.4833L53.5057 78.4936L46.8951 78.5161L24.2 78.5526H24.121V78.4739C24.121 75.3319 24.121 71.9922 24.121 68.5551V68.4736H24.2047L55.881 68.5027H55.9336V68.5551C55.9214 71.6785 55.9111 74.1631 55.9045 75.8713C55.8989 76.7142 55.8942 77.3697 55.8913 77.8118L55.8857 78.3091C55.8773 78.4196 55.8707 78.4739 55.8707 78.4739Z" fill="#263238"/>
<path d="M90.9308 91.9084C90.9308 91.9084 90.9261 91.6856 90.9233 91.2529C90.9205 90.8202 90.9176 90.1833 90.9139 89.3452C90.9092 87.6688 90.9017 85.1935 90.8913 81.9868L90.9308 82.0262L24.1943 82.0683L24.2761 81.9868C24.2761 85.3846 24.2761 88.7299 24.2761 91.9056L24.1953 91.8251L71.6769 91.8607L85.7883 91.8841L89.6008 91.8953L90.5915 91.901C90.8152 91.901 90.9318 91.9066 90.9318 91.9066C90.9318 91.9066 90.8218 91.9066 90.6018 91.9122L89.6215 91.9178L85.8269 91.929L71.7342 91.9525L24.1953 91.988H24.1144V91.9075C24.1144 88.7327 24.1144 85.3864 24.1144 81.9887V81.9072H24.2L90.9364 81.9494H90.9759V81.9887C90.9665 85.2057 90.959 87.6884 90.9534 89.3704L90.944 91.2688C90.9393 91.6949 90.9308 91.9084 90.9308 91.9084Z" fill="#263238"/>
<path d="M90.9308 105.249C90.9308 105.249 90.9261 105.026 90.9233 104.594C90.9205 104.161 90.9177 103.524 90.9139 102.686C90.9092 101.01 90.9017 98.5344 90.8913 95.3277L90.9308 95.3671L24.1944 95.4092L24.2761 95.3277C24.2761 98.7255 24.2761 102.071 24.2761 105.247L24.1953 105.166L71.6769 105.202L85.7883 105.225L89.6008 105.236L90.5915 105.242C90.8152 105.242 90.9318 105.247 90.9318 105.247C90.9318 105.247 90.8218 105.247 90.6018 105.253L89.6215 105.259L85.8269 105.27L71.7342 105.293L24.1944 105.328H24.1135V105.247C24.1135 102.073 24.1135 98.7264 24.1135 95.3287V95.2472H24.199L90.9355 95.2893H90.975V95.3287C90.9656 98.5457 90.9581 101.028 90.9524 102.71L90.943 104.609C90.9393 105.037 90.9308 105.249 90.9308 105.249Z" fill="#263238"/>
<path d="M90.9308 78.4739C90.9308 78.4739 90.9308 78.4131 90.9252 78.2988L90.9195 77.7921C90.9195 77.3426 90.912 76.688 90.9064 75.8395C90.8998 74.1387 90.8894 71.6653 90.8772 68.5551L90.9299 68.6076L59.2535 68.6366L59.3353 68.5551C59.3353 71.9922 59.3353 75.3319 59.3353 78.4739L59.2564 78.3953L81.8969 78.4318L88.5264 78.4543L90.3123 78.4645L90.7757 78.4692C90.88 78.4692 90.9364 78.4739 90.9364 78.4739C90.9364 78.4739 90.8876 78.4739 90.7861 78.4786L90.3321 78.4833L88.5659 78.4936L81.9552 78.5161L59.2601 78.5526H59.1812V78.4739C59.1812 75.3319 59.1812 71.9922 59.1812 68.5551V68.4736H59.2648L90.9411 68.5027H90.9938V68.5551C90.9815 71.6785 90.9712 74.1631 90.9646 75.8713C90.959 76.7142 90.9543 77.3697 90.9515 77.8118L90.9458 78.3091C90.9383 78.4196 90.9308 78.4739 90.9308 78.4739Z" fill="#263238"/>
<path d="M30.8313 74.9516C30.752 74.9634 30.6718 74.9687 30.5916 74.9675L29.8763 74.991C29.256 75.0087 28.3545 75.034 27.2745 75.0471H27.1805L27.2097 74.9535C27.3011 74.6359 27.4741 74.3477 27.7116 74.1172C27.9789 73.8754 28.3129 73.7191 28.6704 73.6686L28.6525 73.8212C28.4515 73.7339 28.2784 73.5934 28.1519 73.4149C28.0255 73.2364 27.9506 73.0268 27.9353 72.8088C27.9129 72.5645 27.9651 72.3192 28.085 72.105C28.2049 71.8907 28.387 71.7176 28.6074 71.6082C28.8176 71.5134 29.0529 71.4887 29.2783 71.5378C29.5037 71.5869 29.7072 71.7072 29.8585 71.8807C29.993 72.0344 30.0875 72.2185 30.1339 72.4171C30.1803 72.6157 30.1771 72.8225 30.1245 73.0196C30.0815 73.1904 29.9999 73.3492 29.8859 73.4838C29.7718 73.6184 29.6284 73.7251 29.4665 73.7959L29.4524 73.6864C29.7312 73.7268 29.9964 73.8327 30.226 73.9954C30.3962 74.1221 30.5394 74.2813 30.6471 74.4637C30.7425 74.6129 30.8064 74.7798 30.8351 74.9544C30.8127 74.915 30.7926 74.8744 30.7749 74.8327C30.7222 74.7154 30.6593 74.6029 30.5869 74.4965C30.4565 74.3035 30.2852 74.1414 30.0852 74.0215C29.8851 73.9016 29.6611 73.8269 29.4289 73.8025L29.2193 73.7781L29.4148 73.6939C29.558 73.6276 29.6842 73.5297 29.7838 73.4077C29.8835 73.2857 29.954 73.1427 29.9901 72.9896C30.034 72.8145 30.0344 72.6315 29.9913 72.4562C29.9482 72.2809 29.863 72.1188 29.7429 71.9837C29.6123 71.8361 29.4376 71.7342 29.2444 71.6932C29.0512 71.6522 28.85 71.6743 28.6704 71.7562C28.4803 71.8524 28.3236 72.0033 28.2206 72.1893C28.1177 72.3754 28.0733 72.588 28.0932 72.7995C28.1061 72.9877 28.1702 73.1688 28.2787 73.3235C28.3872 73.4781 28.5359 73.6003 28.7089 73.677L28.9749 73.7847L28.6929 73.8296C28.3662 73.8741 28.0602 74.0146 27.8141 74.2333C27.5937 74.4443 27.4318 74.7085 27.3441 75.0003L27.2755 74.9067C28.3188 74.9067 29.1958 74.9188 29.8237 74.9282L30.5587 74.9413C30.6497 74.9398 30.7407 74.9432 30.8313 74.9516Z" fill="#5D5A88"/>
<path d="M67.965 74.9516C67.8856 74.9634 67.8055 74.9687 67.7253 74.9675L67.01 74.991C66.3896 75.0087 65.4882 75.034 64.4082 75.0471H64.3142L64.3434 74.9535C64.4348 74.636 64.6078 74.3477 64.8453 74.1172C65.1126 73.8754 65.4466 73.7191 65.8041 73.6686L65.7862 73.8212C65.5852 73.7339 65.412 73.5934 65.2856 73.4149C65.1592 73.2364 65.0842 73.0268 65.069 72.8088C65.0466 72.5645 65.0988 72.3192 65.2187 72.105C65.3386 71.8907 65.5207 71.7176 65.7411 71.6082C65.9512 71.5134 66.1865 71.4887 66.4119 71.5378C66.6374 71.5869 66.8408 71.7072 66.9921 71.8807C67.1266 72.0344 67.2212 72.2185 67.2676 72.4171C67.314 72.6157 67.3107 72.8225 67.2582 73.0196C67.2152 73.1904 67.1336 73.3492 67.0195 73.4838C66.9055 73.6184 66.762 73.7251 66.6002 73.7959L66.5861 73.6864C66.8649 73.7268 67.1301 73.8327 67.3597 73.9954C67.5299 74.1221 67.673 74.2813 67.7808 74.4637C67.8761 74.6129 67.9401 74.7798 67.9687 74.9544C67.9464 74.915 67.9263 74.8744 67.9086 74.8327C67.8559 74.7154 67.793 74.6029 67.7206 74.4965C67.5902 74.3035 67.4189 74.1414 67.2189 74.0215C67.0188 73.9016 66.7948 73.8269 66.5626 73.8025L66.353 73.7781L66.5485 73.6939C66.6917 73.6276 66.8179 73.5297 66.9175 73.4077C67.0172 73.2857 67.0877 73.1427 67.1237 72.9896C67.1676 72.8145 67.168 72.6315 67.125 72.4562C67.0819 72.2809 66.9966 72.1188 66.8765 71.9837C66.746 71.8361 66.5712 71.7342 66.3781 71.6932C66.1849 71.6522 65.9836 71.6743 65.8041 71.7562C65.6139 71.8524 65.4572 72.0033 65.3543 72.1893C65.2514 72.3754 65.207 72.588 65.2269 72.7995C65.2398 72.9877 65.3039 73.1688 65.4124 73.3235C65.5209 73.4781 65.6696 73.6003 65.8426 73.677L66.1086 73.7847L65.8266 73.8296C65.4998 73.874 65.1938 74.0146 64.9477 74.2333C64.7273 74.4443 64.5654 74.7085 64.4778 75.0003L64.4092 74.9067C65.4525 74.9067 66.3295 74.9188 66.9574 74.9282L67.6924 74.9413C67.7834 74.9398 67.8744 74.9432 67.965 74.9516Z" fill="#5D5A88"/>
<path d="M34.5441 72.762V73.5964H35.6467V73.7903H34.5441V74.6912H34.3185V72.5681H35.7802V72.762H34.5441Z" fill="#263238"/>
<path d="M36.1204 72.5916C36.1214 72.5506 36.1385 72.5118 36.1681 72.4834C36.1977 72.455 36.2373 72.4393 36.2783 72.4398C36.2985 72.4392 36.3187 72.4426 36.3375 72.4497C36.3564 72.4569 36.3737 72.4677 36.3884 72.4815C36.4031 72.4954 36.4149 72.512 36.4231 72.5304C36.4313 72.5488 36.4357 72.5686 36.4362 72.5887C36.4362 72.6306 36.4195 72.6707 36.3898 72.7003C36.3601 72.7299 36.3199 72.7465 36.2779 72.7465C36.2359 72.7465 36.1956 72.7299 36.1659 72.7003C36.1362 72.6707 36.1195 72.6306 36.1195 72.5887L36.1204 72.5916ZM36.1693 73.0954H36.3855V74.6875H36.1693V73.0954Z" fill="#263238"/>
<path d="M37.7954 73.0842V73.294C37.7766 73.294 37.7588 73.294 37.7437 73.294C37.6674 73.2902 37.5911 73.3032 37.5204 73.3322C37.4497 73.3613 37.3864 73.4055 37.3349 73.4618C37.2834 73.5182 37.2451 73.5851 37.2226 73.658C37.2002 73.7308 37.1942 73.8077 37.2051 73.8831V74.696H36.989V73.1039H37.1957V73.4167C37.2501 73.3072 37.3365 73.2168 37.4436 73.1574C37.5507 73.098 37.6734 73.0725 37.7954 73.0842Z" fill="#263238"/>
<path d="M37.974 74.5096L38.068 74.3391C38.2341 74.4572 38.4335 74.5198 38.6376 74.518C38.9422 74.518 39.0672 74.415 39.0672 74.2567C39.0672 73.8409 38.0332 74.1687 38.0332 73.5375C38.0332 73.2762 38.2588 73.0823 38.6667 73.0823C38.8649 73.0797 39.0599 73.1312 39.2307 73.2312L39.1367 73.4045C38.9977 73.3123 38.8337 73.2646 38.6667 73.2677C38.3772 73.2677 38.2494 73.3801 38.2494 73.5318C38.2494 73.9626 39.2834 73.6377 39.2834 74.2511C39.2834 74.5274 39.0399 74.7063 38.6254 74.7063C38.3926 74.713 38.1639 74.644 37.974 74.5096Z" fill="#263238"/>
<path d="M40.5278 74.5948C40.4321 74.6712 40.3121 74.7111 40.1895 74.7072C40.126 74.7145 40.0616 74.7075 40.0012 74.6865C39.9409 74.6656 39.886 74.6313 39.8408 74.5863C39.7956 74.5413 39.7612 74.4866 39.7402 74.4265C39.7192 74.3663 39.7121 74.3022 39.7195 74.2389V73.2743H39.4375V73.0926H39.7195V72.7433H39.9357V73.0926H40.4226V73.2743H39.9357V74.2352C39.9301 74.2734 39.9333 74.3124 39.9451 74.3492C39.9568 74.3861 39.9768 74.4198 40.0035 74.4478C40.0301 74.4758 40.0629 74.4974 40.0991 74.5111C40.1354 74.5247 40.1743 74.5299 40.213 74.5264C40.2996 74.5285 40.3841 74.4993 40.4508 74.444L40.5278 74.5948Z" fill="#263238"/>
<path d="M43.1907 73.7669V74.6922H42.9745V73.7875C42.9844 73.7209 42.9791 73.6529 42.9589 73.5887C42.9386 73.5245 42.9041 73.4656 42.8578 73.4166C42.8115 73.3676 42.7546 73.3297 42.6915 73.3057C42.6284 73.2817 42.5606 73.2722 42.4933 73.278C42.4164 73.272 42.3391 73.2829 42.2668 73.3099C42.1946 73.337 42.1293 73.3796 42.0754 73.4346C42.0216 73.4897 41.9806 73.5559 41.9554 73.6286C41.9301 73.7012 41.9212 73.7785 41.9293 73.8549V74.6922H41.7131V73.1001H41.9199V73.3942C41.9848 73.2937 42.0755 73.2123 42.1826 73.1584C42.2897 73.1046 42.4093 73.0803 42.529 73.0879C42.6196 73.0801 42.7108 73.0924 42.796 73.1241C42.8812 73.1557 42.9583 73.2059 43.0217 73.2709C43.085 73.3359 43.1331 73.4141 43.1623 73.4999C43.1915 73.5857 43.2013 73.6769 43.1907 73.7669Z" fill="#263238"/>
<path d="M44.986 73.7023V74.6912H44.7793V74.4421C44.7195 74.5312 44.6369 74.6026 44.54 74.6491C44.4431 74.6955 44.3356 74.7153 44.2284 74.7062C43.8656 74.7062 43.6438 74.5189 43.6438 74.238C43.6438 73.9926 43.8017 73.7856 44.2623 73.7856H44.7708V73.692C44.7708 73.4194 44.6157 73.2705 44.3168 73.2705C44.1224 73.2677 43.9334 73.3341 43.7838 73.4578L43.6899 73.2967C43.8754 73.1519 44.1056 73.0758 44.3412 73.0813C44.4268 73.0693 44.5141 73.0769 44.5963 73.1036C44.6785 73.1302 44.7536 73.1751 44.8158 73.235C44.8779 73.2949 44.9256 73.368 44.9551 73.449C44.9846 73.53 44.9952 73.6166 44.986 73.7023ZM44.7699 74.2117V73.9542H44.267C43.9559 73.9542 43.8553 74.0759 43.8553 74.2351C43.8553 74.4225 44.0047 74.5358 44.2604 74.5358C44.3687 74.5426 44.4764 74.515 44.568 74.457C44.6595 74.3989 44.7302 74.3134 44.7699 74.2127V74.2117Z" fill="#263238"/>
<path d="M48.2157 73.7669V74.6922H47.9995V73.7875C47.9995 73.4503 47.8285 73.278 47.5399 73.278C47.4648 73.2744 47.3898 73.2873 47.3202 73.3156C47.2507 73.3439 47.1882 73.3871 47.1371 73.4421C47.086 73.4971 47.0477 73.5625 47.0247 73.6338C47.0017 73.7051 46.9947 73.7806 47.0041 73.8549V74.6922H46.7879V73.7875C46.7879 73.4503 46.6178 73.278 46.3255 73.278C46.2504 73.2746 46.1755 73.2875 46.106 73.3159C46.0365 73.3443 45.9741 73.3875 45.9231 73.4424C45.872 73.4974 45.8337 73.5628 45.8106 73.634C45.7876 73.7052 45.7805 73.7806 45.7897 73.8549V74.6922H45.5735V73.1001H45.7803V73.3913C45.8418 73.2928 45.9288 73.2126 46.0322 73.1592C46.1356 73.1058 46.2515 73.0812 46.3678 73.0879C46.486 73.0787 46.6042 73.1062 46.7062 73.1666C46.8082 73.2269 46.8889 73.3172 46.9374 73.4251C47.0024 73.3169 47.0956 73.2284 47.2072 73.169C47.3188 73.1096 47.4446 73.0816 47.5709 73.0879C47.6605 73.0812 47.7505 73.0944 47.8344 73.1267C47.9182 73.159 47.9937 73.2095 48.0555 73.2745C48.1173 73.3395 48.1637 73.4175 48.1914 73.5027C48.2191 73.5879 48.2274 73.6781 48.2157 73.7669Z" fill="#263238"/>
<path d="M50.2028 73.9607H48.8624C48.8669 74.0386 48.8869 74.1147 48.9211 74.1848C48.9553 74.2549 49.0031 74.3176 49.0617 74.3692C49.1204 74.4208 49.1886 74.4604 49.2627 74.4856C49.3367 74.5108 49.415 74.5212 49.4931 74.5161C49.5853 74.519 49.677 74.5016 49.7618 74.4654C49.8465 74.4292 49.9223 74.3749 49.9837 74.3063L50.1059 74.4459C49.9911 74.5663 49.843 74.6503 49.6804 74.6872C49.5178 74.7241 49.3479 74.7123 49.192 74.6532C49.0361 74.5942 48.9012 74.4905 48.8043 74.3553C48.7073 74.2201 48.6527 74.0594 48.6471 73.8933C48.6415 73.788 48.6576 73.6826 48.6945 73.5837C48.7315 73.4849 48.7884 73.3946 48.8619 73.3187C48.9353 73.2427 49.0237 73.1826 49.1214 73.1421C49.2192 73.1016 49.3243 73.0815 49.4301 73.0832C49.5358 73.0812 49.6407 73.101 49.7383 73.1415C49.8359 73.182 49.9239 73.2422 49.9969 73.3183C50.0699 73.3945 50.1262 73.4849 50.1623 73.5839C50.1984 73.6829 50.2134 73.7882 50.2065 73.8933C50.2056 73.912 50.2028 73.9364 50.2028 73.9607ZM48.8624 73.7997H49.9988C49.9928 73.6535 49.9303 73.5153 49.8244 73.414C49.7185 73.3127 49.5774 73.2561 49.4306 73.2561C49.2838 73.2561 49.1426 73.3127 49.0367 73.414C48.9308 73.5153 48.8683 73.6535 48.8624 73.7997Z" fill="#263238"/>
<path d="M36.1317 88.3852V88.5791H34.6278V86.455H36.0894V86.6489H34.8534V87.4047H35.9559V87.592H34.8534V88.3805L36.1317 88.3852Z" fill="#263238"/>
<path d="M39.258 87.6538V88.5791H39.0418V87.6744C39.0418 87.3373 38.8717 87.1649 38.5822 87.1649C38.5071 87.1613 38.4321 87.1742 38.3625 87.2025C38.2929 87.2309 38.2304 87.274 38.1794 87.329C38.1283 87.384 38.0899 87.4494 38.067 87.5207C38.044 87.592 38.037 87.6675 38.0464 87.7418V88.5791H37.8302V87.6744C37.8302 87.3373 37.6601 87.1649 37.3677 87.1649C37.2927 87.1615 37.2178 87.1744 37.1483 87.2028C37.0788 87.2312 37.0163 87.2744 36.9653 87.3294C36.9143 87.3843 36.8759 87.4497 36.8529 87.5209C36.8299 87.5921 36.8227 87.6675 36.832 87.7418V88.5791H36.6158V86.987H36.8226V87.2783C36.8841 87.1797 36.9711 87.0995 37.0745 87.0461C37.1779 86.9927 37.2938 86.9681 37.41 86.9748C37.5283 86.9656 37.6465 86.9931 37.7485 87.0535C37.8504 87.1138 37.9312 87.2041 37.9797 87.312C38.0446 87.2038 38.1379 87.1153 38.2495 87.0559C38.3611 86.9965 38.4868 86.9685 38.6132 86.9748C38.7028 86.9681 38.7928 86.9813 38.8766 87.0136C38.9604 87.0459 39.036 87.0964 39.0978 87.1614C39.1595 87.2265 39.206 87.3044 39.2337 87.3896C39.2614 87.4748 39.2697 87.565 39.258 87.6538Z" fill="#263238"/>
<path d="M41.0523 87.5901V88.5791H40.8456V88.33C40.7858 88.4191 40.7032 88.4905 40.6063 88.537C40.5094 88.5834 40.4019 88.6031 40.2947 88.5941C39.9319 88.5941 39.7101 88.4068 39.7101 88.1258C39.7101 87.8805 39.868 87.6735 40.3286 87.6735H40.8371V87.5798C40.8371 87.3073 40.682 87.1584 40.3831 87.1584C40.1887 87.1556 39.9997 87.222 39.8501 87.3457L39.7562 87.1846C39.9417 87.0398 40.1719 86.9637 40.4075 86.9692C40.4931 86.9572 40.5804 86.9648 40.6626 86.9914C40.7448 87.018 40.8199 87.063 40.8821 87.1228C40.9442 87.1827 40.9919 87.2559 41.0214 87.3369C41.0509 87.4179 41.0615 87.5045 41.0523 87.5901ZM40.8361 88.0996V87.8383H40.3333C40.0222 87.8383 39.9216 87.9601 39.9216 88.1193C39.9216 88.3066 40.071 88.4199 40.3267 88.4199C40.4344 88.4257 40.5411 88.3975 40.6317 88.3393C40.7223 88.2811 40.7922 88.1959 40.8315 88.0959L40.8361 88.0996Z" fill="#263238"/>
<path d="M41.59 86.4794C41.591 86.4385 41.6081 86.3996 41.6377 86.3712C41.6672 86.3428 41.7068 86.3271 41.7479 86.3276C41.7681 86.327 41.7882 86.3304 41.8071 86.3375C41.826 86.3447 41.8433 86.3555 41.858 86.3693C41.8726 86.3832 41.8844 86.3998 41.8926 86.4182C41.9009 86.4366 41.9053 86.4564 41.9058 86.4766C41.9058 86.5184 41.8891 86.5585 41.8594 86.5881C41.8297 86.6177 41.7894 86.6343 41.7474 86.6343C41.7054 86.6343 41.6651 86.6177 41.6354 86.5881C41.6057 86.5585 41.5891 86.5184 41.5891 86.4766L41.59 86.4794ZM41.6389 86.9832H41.8551V88.5753H41.6389V86.9832Z" fill="#263238"/>
<path d="M42.4576 86.3277H42.6738V88.5754H42.4576V86.3277Z" fill="#263238"/>
<path d="M35.2406 100.465C35.2406 100.917 34.9117 101.19 34.3693 101.19H33.7969V101.86H33.5713V99.736H34.3693C34.9098 99.736 35.2406 100.01 35.2406 100.465ZM35.015 100.465C35.015 100.125 34.7895 99.9308 34.3637 99.9308H33.7997V100.993H34.3637C34.7904 100.993 35.015 100.798 35.015 100.465Z" fill="#263238"/>
<path d="M36.8743 100.871V101.863H36.6675V101.614C36.6077 101.703 36.5251 101.774 36.4282 101.821C36.3314 101.867 36.2238 101.887 36.1167 101.878C35.7538 101.878 35.532 101.691 35.532 101.41C35.532 101.164 35.6899 100.957 36.1505 100.957H36.659V100.864C36.659 100.591 36.5039 100.442 36.205 100.442C36.0107 100.439 35.8217 100.506 35.6721 100.629L35.5781 100.468C35.7636 100.324 35.9938 100.247 36.2295 100.253C36.3148 100.241 36.4018 100.249 36.4838 100.275C36.5657 100.302 36.6406 100.346 36.7027 100.406C36.7649 100.465 36.8126 100.538 36.8423 100.619C36.872 100.699 36.8829 100.786 36.8743 100.871ZM36.6581 101.381V101.119H36.1552C35.8441 101.119 35.7435 101.241 35.7435 101.4C35.7435 101.588 35.8929 101.701 36.1486 101.701C36.2566 101.708 36.3641 101.681 36.4556 101.623C36.5471 101.566 36.618 101.481 36.6581 101.381Z" fill="#263238"/>
<path d="M37.239 101.676L37.333 101.505C37.4991 101.623 37.6985 101.686 37.9026 101.684C38.2071 101.684 38.3321 101.581 38.3321 101.423C38.3321 101.007 37.2982 101.335 37.2982 100.703C37.2982 100.442 37.5238 100.248 37.9317 100.248C38.1298 100.246 38.3249 100.297 38.4957 100.397L38.4017 100.57C38.2626 100.478 38.0987 100.431 37.9317 100.434C37.6422 100.434 37.5144 100.546 37.5144 100.698C37.5144 101.129 38.5483 100.804 38.5483 101.417C38.5483 101.693 38.3049 101.872 37.8903 101.872C37.6575 101.879 37.4288 101.81 37.239 101.676Z" fill="#263238"/>
<path d="M38.7269 101.676L38.8209 101.505C38.9871 101.623 39.1865 101.686 39.3905 101.684C39.6951 101.684 39.8201 101.581 39.8201 101.423C39.8201 101.007 38.7861 101.335 38.7861 100.703C38.7861 100.442 39.0117 100.248 39.4197 100.248C39.6178 100.246 39.8128 100.297 39.9836 100.397L39.8896 100.57C39.7506 100.478 39.5866 100.431 39.4197 100.434C39.1302 100.434 39.0023 100.546 39.0023 100.698C39.0023 101.129 40.0363 100.804 40.0363 101.417C40.0363 101.693 39.7928 101.872 39.3783 101.872C39.1455 101.879 38.9168 101.81 38.7269 101.676Z" fill="#263238"/>
<path d="M42.7584 100.264L42.1521 101.856H41.9481L41.4424 100.545L40.9367 101.856H40.7328L40.1293 100.264H40.3361L40.839 101.62L41.3541 100.264H41.5421L42.0534 101.62L42.5619 100.264H42.7584Z" fill="#263238"/>
<path d="M42.8749 101.062C42.8753 100.902 42.9234 100.745 43.0131 100.612C43.1028 100.478 43.2302 100.375 43.3791 100.313C43.528 100.252 43.6917 100.236 43.8496 100.268C44.0076 100.299 44.1526 100.377 44.2664 100.49C44.3802 100.604 44.4578 100.748 44.4892 100.906C44.5206 101.063 44.5044 101.226 44.4429 101.374C44.3813 101.523 44.2769 101.65 44.1431 101.739C44.0092 101.828 43.8519 101.876 43.6908 101.876C43.5825 101.88 43.4746 101.862 43.3737 101.822C43.2729 101.783 43.1813 101.723 43.1047 101.646C43.0282 101.57 42.9682 101.479 42.9287 101.378C42.8891 101.278 42.8708 101.17 42.8749 101.062ZM44.2848 101.062C44.2793 100.946 44.2397 100.834 44.1708 100.74C44.102 100.646 44.007 100.574 43.8977 100.534C43.7883 100.493 43.6694 100.485 43.5556 100.512C43.4419 100.538 43.3384 100.597 43.2579 100.681C43.1775 100.765 43.1236 100.871 43.103 100.985C43.0824 101.1 43.096 101.218 43.1421 101.325C43.1882 101.432 43.2648 101.523 43.3623 101.586C43.4599 101.65 43.5741 101.684 43.6908 101.684C43.7718 101.686 43.8523 101.67 43.9271 101.639C44.002 101.608 44.0695 101.562 44.1254 101.503C44.1812 101.445 44.2243 101.376 44.2517 101.3C44.2792 101.224 44.2905 101.143 44.2848 101.062Z" fill="#263238"/>
<path d="M45.7512 100.252V100.462C45.7324 100.462 45.7145 100.462 45.6995 100.462C45.6231 100.458 45.5468 100.471 45.4761 100.5C45.4055 100.529 45.3421 100.573 45.2906 100.63C45.2391 100.686 45.2008 100.753 45.1783 100.826C45.1559 100.899 45.15 100.976 45.1609 101.051V101.864H44.9447V100.272H45.1515V100.585C45.2058 100.475 45.2923 100.385 45.3994 100.325C45.5065 100.266 45.6291 100.24 45.7512 100.252Z" fill="#263238"/>
<path d="M47.5869 99.6087V101.856H47.3801V101.541C47.3158 101.646 47.2246 101.732 47.1159 101.79C47.0072 101.848 46.8849 101.876 46.7616 101.871C46.5504 101.864 46.3502 101.776 46.2033 101.624C46.0564 101.473 45.9743 101.27 45.9743 101.06C45.9743 100.849 46.0564 100.647 46.2033 100.495C46.3502 100.344 46.5504 100.255 46.7616 100.248C46.8818 100.244 47.001 100.271 47.1077 100.327C47.2144 100.382 47.305 100.464 47.3707 100.564V99.6049L47.5869 99.6087ZM47.3735 101.062C47.368 100.946 47.3284 100.834 47.2595 100.74C47.1907 100.646 47.0957 100.574 46.9863 100.534C46.877 100.493 46.758 100.486 46.6443 100.512C46.5306 100.538 46.4271 100.597 46.3466 100.681C46.2661 100.765 46.2123 100.871 46.1917 100.986C46.1711 101.1 46.1847 101.218 46.2308 101.325C46.2769 101.432 46.3535 101.523 46.451 101.586C46.5485 101.65 46.6628 101.684 46.7795 101.684C46.8604 101.685 46.9408 101.67 47.0155 101.639C47.0902 101.608 47.1575 101.561 47.2134 101.503C47.2692 101.444 47.3122 101.375 47.3398 101.299C47.3674 101.223 47.3788 101.143 47.3735 101.062Z" fill="#263238"/>
<path d="M70.3224 72.8679H70.548V74.7971H71.7417V74.991H70.3224V72.8679Z" fill="#263238"/>
<path d="M73.2842 74.0029V74.9918H73.0774V74.7427C73.0175 74.8319 72.9347 74.9034 72.8377 74.9498C72.7406 74.9963 72.6329 75.0159 72.5256 75.0068C72.1638 75.0068 71.941 74.8195 71.941 74.5386C71.941 74.2932 72.0998 74.0862 72.5595 74.0862H73.068V73.9926C73.068 73.7201 72.9129 73.5711 72.614 73.5711C72.4196 73.5684 72.2306 73.6348 72.081 73.7584L71.987 73.5974C72.1726 73.4525 72.4028 73.3764 72.6384 73.382C72.7241 73.3698 72.8114 73.3773 72.8938 73.4038C72.9761 73.4304 73.0513 73.4753 73.1136 73.5352C73.1759 73.5951 73.2236 73.6683 73.2532 73.7494C73.2827 73.8304 73.2933 73.9171 73.2842 74.0029ZM73.068 74.5124V74.2511H72.5651C72.2549 74.2511 72.1534 74.3728 72.1534 74.532C72.1534 74.7193 72.3028 74.8326 72.5585 74.8326C72.6667 74.8408 72.7747 74.8146 72.8669 74.7577C72.9591 74.7008 73.0309 74.6162 73.0717 74.5161L73.068 74.5124Z" fill="#263238"/>
<path d="M73.6489 74.8102L73.7429 74.6397C73.909 74.7577 74.1084 74.8203 74.3125 74.8186C74.617 74.8186 74.7421 74.7156 74.7421 74.5573C74.7421 74.1415 73.7081 74.4693 73.7081 73.8381C73.7081 73.5768 73.9337 73.3829 74.3416 73.3829C74.5397 73.3802 74.7348 73.4317 74.9056 73.5318L74.8116 73.7051C74.6725 73.6129 74.5086 73.5652 74.3416 73.5683C74.0521 73.5683 73.9243 73.6807 73.9243 73.8324C73.9243 74.2632 74.9582 73.9383 74.9582 74.5517C74.9582 74.828 74.7148 75.0069 74.3003 75.0069C74.0675 75.0136 73.8387 74.9446 73.6489 74.8102Z" fill="#263238"/>
<path d="M76.2027 74.8908C76.1072 74.967 75.9876 75.0068 75.8653 75.0031C75.8018 75.0105 75.7374 75.0034 75.6771 74.9825C75.6167 74.9615 75.5618 74.9273 75.5166 74.8822C75.4714 74.8372 75.437 74.7826 75.416 74.7224C75.395 74.6622 75.3879 74.5981 75.3953 74.5349V73.5796H75.1133V73.3923H75.3953V73.043H75.6115V73.3923H76.0993V73.574H75.6096V74.5264C75.604 74.5647 75.6073 74.6037 75.619 74.6405C75.6307 74.6773 75.6507 74.711 75.6774 74.739C75.7041 74.7671 75.7368 74.7887 75.7731 74.8023C75.8094 74.816 75.8483 74.8212 75.8869 74.8177C75.9735 74.8197 76.058 74.7905 76.1247 74.7353L76.2027 74.8908Z" fill="#263238"/>
<path d="M78.8656 74.0666V74.9919H78.6494V74.0872C78.6593 74.0206 78.654 73.9526 78.6337 73.8884C78.6135 73.8242 78.579 73.7653 78.5326 73.7163C78.4863 73.6673 78.4295 73.6294 78.3664 73.6054C78.3032 73.5814 78.2355 73.5719 78.1682 73.5777C78.0913 73.5717 78.014 73.5825 77.9417 73.6096C77.8695 73.6367 77.8042 73.6793 77.7503 73.7343C77.6965 73.7894 77.6555 73.8556 77.6302 73.9282C77.605 74.0009 77.5961 74.0782 77.6042 74.1546V74.9919H77.388V73.3998H77.5948V73.6939C77.6597 73.5934 77.7504 73.512 77.8575 73.4581C77.9646 73.4043 78.0842 73.3799 78.2039 73.3876C78.2945 73.3798 78.3857 73.3921 78.4709 73.4238C78.5561 73.4554 78.6332 73.5056 78.6966 73.5706C78.7599 73.6356 78.808 73.7138 78.8372 73.7996C78.8664 73.8854 78.8761 73.9766 78.8656 74.0666Z" fill="#263238"/>
<path d="M80.6609 74.0029V74.9918H80.4541V74.7427C80.3942 74.8319 80.3114 74.9034 80.2144 74.9498C80.1174 74.9963 80.0096 75.0159 79.9024 75.0068C79.5405 75.0068 79.3177 74.8195 79.3177 74.5386C79.3177 74.2932 79.4766 74.0862 79.9362 74.0862H80.4447V73.9926C80.4447 73.7201 80.2896 73.5711 79.9907 73.5711C79.7964 73.5684 79.6074 73.6348 79.4578 73.7584L79.3638 73.5974C79.5493 73.4525 79.7795 73.3764 80.0152 73.382C80.1008 73.3698 80.1882 73.3773 80.2705 73.4038C80.3529 73.4304 80.4281 73.4753 80.4903 73.5352C80.5526 73.5951 80.6004 73.6683 80.6299 73.7494C80.6595 73.8304 80.6701 73.9171 80.6609 74.0029ZM80.4447 74.5124V74.2511H79.9418C79.6317 74.2511 79.5302 74.3728 79.5302 74.532C79.5302 74.7193 79.6796 74.8326 79.9353 74.8326C80.0428 74.84 80.15 74.8134 80.2414 74.7565C80.3329 74.6997 80.404 74.6156 80.4447 74.5161V74.5124Z" fill="#263238"/>
<path d="M83.8906 74.0666V74.9919H83.6744V74.0872C83.6744 73.75 83.5042 73.5777 83.2147 73.5777C83.1397 73.5741 83.0647 73.5869 82.9951 73.6153C82.9255 73.6436 82.863 73.6868 82.8119 73.7418C82.7609 73.7968 82.7225 73.8622 82.6996 73.9335C82.6766 74.0048 82.6696 74.0803 82.679 74.1546V74.9919H82.4628V74.0872C82.4628 73.75 82.2917 73.5777 81.9994 73.5777C81.9243 73.5743 81.8495 73.5872 81.7799 73.6156C81.7104 73.644 81.648 73.6872 81.597 73.7421C81.5459 73.7971 81.5076 73.8624 81.4845 73.9337C81.4615 74.0049 81.4544 74.0803 81.4636 74.1546V74.9919H81.2474V73.3998H81.4542V73.691C81.5157 73.5925 81.6028 73.5123 81.7061 73.4589C81.8095 73.4055 81.9254 73.3809 82.0417 73.3876C82.1599 73.3784 82.2781 73.4059 82.3801 73.4663C82.4821 73.5266 82.5628 73.6169 82.6113 73.7247C82.6763 73.6166 82.7696 73.5282 82.8812 73.4688C82.9928 73.4094 83.1185 73.3814 83.2448 73.3876C83.3345 73.3807 83.4246 73.3938 83.5086 73.426C83.5925 73.4583 83.6682 73.5087 83.7301 73.5738C83.7919 73.6389 83.8385 73.7169 83.8662 73.8021C83.894 73.8874 83.9023 73.9777 83.8906 74.0666Z" fill="#263238"/>
<path d="M85.8767 74.2605H84.5391C84.5437 74.3383 84.5636 74.4145 84.5978 74.4846C84.6321 74.5547 84.6799 74.6173 84.7385 74.669C84.7971 74.7206 84.8654 74.7601 84.9394 74.7853C85.0135 74.8105 85.0918 74.8209 85.1698 74.8158C85.2619 74.8186 85.3534 74.8013 85.438 74.765C85.5226 74.7288 85.5983 74.6745 85.6596 74.6061L85.7818 74.7456C85.6669 74.8661 85.5189 74.95 85.3562 74.9869C85.1936 75.0238 85.0237 75.012 84.8678 74.9529C84.7119 74.8939 84.5771 74.7903 84.4801 74.6551C84.3832 74.5199 84.3285 74.3591 84.323 74.193C84.3173 74.0877 84.3334 73.9823 84.3703 73.8835C84.4073 73.7846 84.4642 73.6944 84.5377 73.6184C84.6111 73.5424 84.6995 73.4823 84.7972 73.4418C84.895 73.4013 85.0001 73.3813 85.1059 73.383C85.2116 73.3809 85.3165 73.4008 85.4141 73.4412C85.5117 73.4817 85.5997 73.5419 85.6727 73.6181C85.7457 73.6942 85.802 73.7847 85.8381 73.8836C85.8742 73.9826 85.8892 74.088 85.8823 74.193C85.8804 74.2127 85.8767 74.2352 85.8767 74.2605ZM84.5363 74.0994H85.6718C85.6634 73.955 85.6 73.8193 85.4944 73.72C85.3889 73.6207 85.2492 73.5654 85.104 73.5654C84.9589 73.5654 84.8192 73.6207 84.7137 73.72C84.6081 73.8193 84.5447 73.955 84.5363 74.0994Z" fill="#263238"/>
<path d="M30.2392 99.4279C30.2238 99.3611 30.2147 99.2931 30.2119 99.2247C30.2135 99.0591 30.1741 98.8957 30.0972 98.7489C30.0378 98.6441 29.9548 98.5543 29.8549 98.4866C29.755 98.4189 29.6407 98.375 29.521 98.3584C29.3758 98.3379 29.2278 98.3594 29.0945 98.4204C28.9612 98.4813 28.8483 98.5791 28.7691 98.7021C28.7013 98.8063 28.6606 98.9257 28.6507 99.0495L28.6394 99.4298L28.5623 99.352C29.121 99.3489 29.6794 99.3746 30.2354 99.4288C29.6798 99.4889 29.1211 99.5146 28.5623 99.5056H28.4843V99.4279C28.4843 99.3024 28.4843 99.1816 28.489 99.0373C28.4981 98.9122 28.5332 98.7904 28.5921 98.6795C28.651 98.5687 28.7324 98.4713 28.8312 98.3935C28.9299 98.3157 29.0438 98.2593 29.1657 98.2277C29.2875 98.1962 29.4146 98.1903 29.5389 98.2104C29.6796 98.2328 29.8127 98.2886 29.9272 98.373C30.0417 98.4575 30.1342 98.5681 30.1969 98.6955C30.2766 98.8668 30.3018 99.0583 30.2693 99.2443C30.257 99.3801 30.2467 99.44 30.2392 99.4279Z" fill="#5D5A88"/>
<path d="M29.6912 101.462C29.6319 101.344 29.5819 101.221 29.5417 101.095L29.5295 101.06L29.5643 101.036C29.6144 100.997 29.6486 100.942 29.6606 100.88C29.6725 100.818 29.6613 100.754 29.6291 100.7C29.6105 100.669 29.5851 100.643 29.5549 100.623C29.5247 100.603 29.4904 100.591 29.4546 100.586C29.4187 100.581 29.3823 100.584 29.348 100.596C29.3137 100.607 29.2823 100.626 29.2563 100.651C29.2303 100.676 29.2102 100.706 29.1976 100.74C29.185 100.773 29.1801 100.81 29.1834 100.845C29.1867 100.881 29.1981 100.916 29.2167 100.947C29.2353 100.978 29.2606 101.004 29.2907 101.024L29.3377 101.052L29.3246 101.103L29.2306 101.478L29.1695 101.403C29.3444 101.411 29.5184 101.431 29.6902 101.465C29.5206 101.51 29.3452 101.531 29.1695 101.527H29.0943L29.1084 101.447L29.177 101.072L29.2108 101.152C29.1328 101.105 29.0737 101.032 29.0435 100.946C29.0134 100.861 29.014 100.767 29.0455 100.682C29.0769 100.596 29.137 100.524 29.2157 100.478C29.2944 100.432 29.3867 100.415 29.4768 100.429C29.5359 100.438 29.592 100.461 29.6409 100.495C29.6898 100.529 29.7302 100.574 29.7588 100.627C29.8061 100.711 29.8187 100.811 29.794 100.904C29.7693 100.998 29.7092 101.078 29.6263 101.129L29.6489 101.07C29.6854 101.197 29.6997 101.33 29.6912 101.462Z" fill="#5D5A88"/>
<path d="M30.4685 99.4354C30.515 99.429 30.5623 99.4335 30.6067 99.4485C30.7389 99.4848 30.8545 99.5656 30.9338 99.677C30.9924 99.7582 31.0302 99.8524 31.0438 99.9514C31.056 100.063 31.0513 100.169 31.056 100.291L31.0682 101.109L31.0739 101.585C31.0853 101.762 31.0786 101.94 31.0541 102.116C31.027 102.215 30.9769 102.307 30.9079 102.384C30.8389 102.461 30.7528 102.521 30.6565 102.559C30.5575 102.596 30.4519 102.612 30.3463 102.606H30.0484L28.7879 102.611H28.457C28.3307 102.616 28.2053 102.587 28.0942 102.527C27.981 102.464 27.8881 102.37 27.8263 102.256C27.7644 102.142 27.7361 102.013 27.7445 101.884C27.7445 101.402 27.7445 100.933 27.7445 100.48V100.143C27.7359 100.025 27.7506 99.9054 27.7878 99.7922C27.8304 99.6802 27.9022 99.5815 27.9959 99.5064C28.0896 99.4313 28.2018 99.3826 28.3207 99.3652L28.2568 99.4373C28.2615 99.2874 28.2568 99.1563 28.27 98.999C28.2854 98.8519 28.3298 98.7093 28.4006 98.5794C28.5324 98.3379 28.7479 98.1525 29.0069 98.0578C29.2165 97.9816 29.4442 97.9699 29.6606 98.0241C29.8769 98.0784 30.072 98.1961 30.2204 98.3621C30.3153 98.4672 30.3883 98.59 30.435 98.7235C30.4818 98.8569 30.5015 98.9984 30.493 99.1395C30.4897 99.238 30.4803 99.3362 30.4648 99.4335C30.4495 99.3372 30.4429 99.2397 30.445 99.1423C30.4443 98.874 30.3403 98.6163 30.1546 98.4221C30.0442 98.3052 29.9074 98.2162 29.7556 98.1626C29.6037 98.109 29.4412 98.0923 29.2816 98.1139C29.1219 98.1355 28.9698 98.1948 28.8378 98.2869C28.7058 98.3789 28.5979 98.5011 28.5228 98.6431C28.4625 98.7577 28.4254 98.8831 28.4138 99.0121C28.4063 99.1404 28.4138 99.293 28.4072 99.4382V99.5019L28.3452 99.5113C28.2532 99.5256 28.1667 99.5642 28.0947 99.623C28.0227 99.6818 27.9677 99.7586 27.9354 99.8456C27.9055 99.9419 27.895 100.043 27.9043 100.143V100.48C27.9043 100.933 27.9043 101.403 27.9043 101.884C27.8955 101.984 27.9158 102.085 27.9628 102.174C28.0098 102.263 28.0816 102.336 28.1694 102.385C28.2556 102.433 28.3531 102.455 28.4514 102.451H28.7822L30.0427 102.456C30.2285 102.472 30.4157 102.461 30.5982 102.423C30.6745 102.394 30.7431 102.347 30.7983 102.287C30.8536 102.228 30.8942 102.156 30.9169 102.077C30.94 101.913 30.9482 101.747 30.9413 101.582L30.9469 101.106L30.9592 100.289C30.9592 100.171 30.9676 100.052 30.9592 99.958C30.9509 99.8696 30.9216 99.7846 30.8736 99.7098C30.7764 99.5725 30.6324 99.475 30.4685 99.4354Z" fill="#5D5A88"/>
<path d="M31.839 89.0502C31.828 88.9711 31.8223 88.8913 31.822 88.8114L31.7986 88.1558L31.7412 85.8398L31.807 85.9044L27.0311 85.9671L27.112 85.8857V86.0973V86.3099V86.7304L27.1185 87.5508L27.1289 89.0924L27.0537 89.0184C28.4448 89.0109 29.6291 89.0184 30.4732 89.0184L31.4639 89.0287C31.5863 89.0266 31.7087 89.0313 31.8305 89.0427C31.7196 89.0576 31.6078 89.0645 31.4959 89.0633L30.523 89.0933C29.6837 89.1158 28.4786 89.1439 27.0556 89.1635H26.9813V89.0886C26.9747 88.5988 26.9681 88.0828 26.9606 87.5471L26.9512 86.7267V86.3062V86.0936V85.8819L27.0321 85.7995L31.8079 85.7695H31.8747V85.8342C31.8747 86.8016 31.8662 87.6042 31.8634 88.1914L31.8531 88.8292C31.8555 88.9031 31.8508 88.9771 31.839 89.0502Z" fill="#5D5A88"/>
<path d="M31.8079 85.8425C31.6067 86.046 31.3864 86.2297 31.15 86.3913C30.7298 86.7135 30.1423 87.149 29.4872 87.6229H29.3932L29.3857 87.6172L29.3697 87.606L29.3387 87.5845L29.2766 87.5414L29.1544 87.4562L28.9166 87.2895L28.4683 86.972L27.7163 86.4269C27.4759 86.2701 27.2512 86.0908 27.0452 85.8912C27.3044 86.0145 27.5512 86.1622 27.7821 86.3323L28.5566 86.8484L29.0106 87.1574L29.2503 87.3222L29.3725 87.4065L29.4346 87.4496L29.4656 87.4711L29.4816 87.4824L29.4891 87.488H29.3951C30.053 87.0151 30.648 86.5936 31.087 86.2958C31.3124 86.1223 31.5538 85.9705 31.8079 85.8425Z" fill="#5D5A88"/>
<path d="M28.0164 88.1402C28.4565 87.5837 28.7846 87.1099 28.7492 87.0821C28.7137 87.0542 28.3281 87.4828 27.8879 88.0394C27.4477 88.5959 27.1196 89.0697 27.1551 89.0975C27.1905 89.1254 27.5762 88.6968 28.0164 88.1402Z" fill="#5D5A88"/>
<path d="M31.8383 89.0468C31.874 89.0192 31.5594 88.556 31.1356 88.0123C30.7118 87.4686 30.3393 87.0502 30.3037 87.0778C30.268 87.1054 30.5826 87.5685 31.0064 88.1123C31.4302 88.656 31.8027 89.0744 31.8383 89.0468Z" fill="#5D5A88"/>
<path d="M88.4343 110.379H26.6965C25.3161 110.379 24.1971 111.494 24.1971 112.869V118.025C24.1971 119.4 25.3161 120.515 26.6965 120.515H88.4343C89.8146 120.515 90.9336 119.4 90.9336 118.025V112.869C90.9336 111.494 89.8146 110.379 88.4343 110.379Z" fill="#5D5A88"/>
<g opacity="0.3">
<path d="M88.4343 110.385H26.6965C25.3161 110.385 24.1971 111.5 24.1971 112.876V118.031C24.1971 119.406 25.3161 120.521 26.6965 120.521H88.4343C89.8146 120.521 90.9336 119.406 90.9336 118.031V112.876C90.9336 111.5 89.8146 110.385 88.4343 110.385Z" fill="#3853A4"/>
</g>
<path d="M88.4343 108.967H26.6965C25.3161 108.967 24.1971 110.082 24.1971 111.458V116.613C24.1971 117.989 25.3161 119.104 26.6965 119.104H88.4343C89.8146 119.104 90.9336 117.989 90.9336 116.613V111.458C90.9336 110.082 89.8146 108.967 88.4343 108.967Z" fill="#3853A4"/>
<path d="M48.9348 114.263L49.464 114.211C49.4811 114.359 49.5496 114.497 49.6576 114.601C49.7693 114.688 49.9093 114.733 50.0514 114.725C50.1922 114.735 50.3322 114.696 50.4472 114.615C50.4878 114.585 50.5209 114.546 50.544 114.501C50.5672 114.456 50.5797 114.407 50.5806 114.356C50.5821 114.297 50.5621 114.24 50.5242 114.194C50.4702 114.139 50.4029 114.099 50.3287 114.078C50.2661 114.056 50.121 114.017 49.8935 113.961C49.6716 113.92 49.4619 113.83 49.2807 113.696C49.2021 113.63 49.1391 113.547 49.0962 113.454C49.0533 113.361 49.0316 113.259 49.0325 113.157C49.0325 113.02 49.0731 112.887 49.1491 112.773C49.2309 112.651 49.3478 112.557 49.4846 112.502C49.6532 112.435 49.8336 112.404 50.0148 112.408C50.2876 112.388 50.5586 112.466 50.778 112.629C50.8627 112.703 50.9305 112.794 50.9769 112.896C51.0233 112.998 51.0472 113.108 51.0468 113.22L50.5036 113.244C50.4926 113.13 50.4393 113.024 50.3541 112.947C50.2531 112.878 50.132 112.845 50.0101 112.853C49.8795 112.845 49.7496 112.877 49.6388 112.947C49.6115 112.965 49.5893 112.99 49.5742 113.019C49.5591 113.048 49.5516 113.081 49.5523 113.113C49.5524 113.145 49.5597 113.176 49.5737 113.204C49.5877 113.233 49.6081 113.257 49.6332 113.276C49.7869 113.367 49.9562 113.427 50.1323 113.455C50.3347 113.496 50.5316 113.561 50.7188 113.648C50.8409 113.71 50.9436 113.805 51.0158 113.921C51.09 114.053 51.1272 114.202 51.1235 114.353C51.1199 114.504 51.0756 114.651 50.9952 114.78C50.9082 114.915 50.781 115.019 50.6314 115.078C50.4442 115.147 50.2453 115.179 50.0458 115.172C49.7646 115.191 49.4861 115.107 49.2619 114.937C49.0712 114.761 48.9543 114.52 48.9348 114.263Z" fill="white"/>
<path d="M51.577 112.929V112.453H52.093V112.929H51.577ZM51.577 115.135V113.195H52.093V115.137L51.577 115.135Z" fill="white"/>
<path d="M52.5743 115.263L53.1636 115.334C53.1649 115.361 53.1716 115.387 53.1832 115.411C53.1948 115.435 53.2112 115.457 53.2313 115.474C53.3007 115.516 53.3815 115.536 53.4625 115.53C53.5669 115.536 53.6713 115.516 53.7652 115.47C53.8132 115.439 53.8494 115.393 53.8676 115.34C53.8875 115.263 53.8954 115.183 53.8911 115.104V114.823C53.8277 114.919 53.7411 114.998 53.6392 115.053C53.5373 115.108 53.4233 115.137 53.3074 115.137C53.1839 115.14 53.0617 115.111 52.9527 115.053C52.8437 114.995 52.7516 114.91 52.6852 114.806C52.5589 114.611 52.4962 114.382 52.5057 114.15C52.4863 113.88 52.5706 113.612 52.7416 113.401C52.8147 113.318 52.905 113.252 53.0063 113.208C53.1076 113.163 53.2174 113.141 53.3281 113.143C53.4461 113.143 53.5624 113.172 53.6665 113.227C53.7707 113.282 53.8595 113.362 53.925 113.46V113.195H54.4081V114.938C54.4148 115.111 54.3955 115.284 54.3508 115.452C54.3205 115.553 54.2656 115.644 54.191 115.719C54.1121 115.789 54.0183 115.841 53.9165 115.871C53.7754 115.911 53.629 115.929 53.4823 115.926C53.2356 115.948 52.9885 115.888 52.7792 115.756C52.7134 115.706 52.6604 115.641 52.6244 115.566C52.5883 115.492 52.5702 115.41 52.5715 115.327C52.5721 115.309 52.573 115.287 52.5743 115.263ZM53.0348 114.123C53.0217 114.283 53.0642 114.443 53.1552 114.575C53.1904 114.62 53.2353 114.656 53.2866 114.681C53.3379 114.706 53.3942 114.719 53.4513 114.719C53.5121 114.719 53.5724 114.706 53.6277 114.681C53.683 114.656 53.7319 114.618 53.7708 114.572C53.8665 114.447 53.913 114.292 53.9015 114.135C53.9141 113.976 53.8698 113.817 53.7765 113.687C53.7384 113.64 53.6902 113.602 53.6355 113.577C53.5808 113.552 53.521 113.539 53.4606 113.54C53.4021 113.539 53.3441 113.552 53.2911 113.577C53.2381 113.601 53.1916 113.638 53.1552 113.684C53.0651 113.812 53.0225 113.967 53.0348 114.123Z" fill="white"/>
<path d="M56.6922 115.135H56.1762V114.144C56.1835 114.007 56.1724 113.87 56.1433 113.736C56.1241 113.678 56.0865 113.628 56.0361 113.593C55.9834 113.558 55.921 113.54 55.8575 113.541C55.7716 113.54 55.6875 113.566 55.6169 113.614C55.5478 113.661 55.4965 113.729 55.4712 113.808C55.438 113.955 55.4247 114.105 55.4317 114.255V115.135H54.9157V113.195H55.3951V113.476C55.5007 113.331 55.6524 113.225 55.8258 113.176C55.9991 113.128 56.1839 113.139 56.35 113.208C56.4338 113.241 56.5076 113.295 56.5644 113.364C56.6129 113.428 56.6472 113.502 56.6649 113.58C56.6868 113.694 56.6963 113.81 56.6931 113.925L56.6922 115.135Z" fill="white"/>
<path d="M58.26 112.453H58.8033V113.906C58.7987 114.056 58.8053 114.206 58.8231 114.354C58.8438 114.46 58.9031 114.554 58.9894 114.618C59.0949 114.69 59.2211 114.725 59.3485 114.718C59.472 114.727 59.5949 114.694 59.6972 114.624C59.7715 114.567 59.8218 114.485 59.8382 114.393C59.8575 114.242 59.8654 114.09 59.8617 113.938V112.454H60.405V113.859C60.4119 114.087 60.3971 114.316 60.3608 114.542C60.3357 114.666 60.2798 114.781 60.1982 114.878C60.1115 114.975 60.0029 115.049 59.8814 115.096C59.7156 115.156 59.5398 115.184 59.3635 115.178C59.1646 115.187 58.9658 115.157 58.7789 115.089C58.6571 115.038 58.5492 114.959 58.464 114.858C58.3912 114.772 58.3391 114.671 58.3117 114.561C58.27 114.337 58.252 114.109 58.2581 113.88L58.26 112.453Z" fill="white"/>
<path d="M60.9605 113.195H61.4417V113.476C61.5055 113.377 61.5927 113.295 61.6955 113.238C61.8032 113.176 61.9255 113.144 62.0499 113.144C62.1596 113.143 62.2682 113.167 62.3678 113.213C62.4674 113.258 62.5556 113.326 62.6261 113.409C62.7947 113.618 62.8792 113.881 62.863 114.148C62.88 114.421 62.7949 114.691 62.6242 114.905C62.554 114.99 62.4657 115.058 62.3657 115.105C62.2657 115.152 62.1565 115.175 62.0461 115.175C61.9447 115.176 61.8444 115.155 61.7529 115.111C61.6483 115.055 61.5547 114.981 61.4765 114.892V115.871H60.9605V113.195ZM61.4709 114.131C61.4573 114.303 61.5035 114.474 61.6015 114.616C61.6388 114.664 61.6869 114.704 61.742 114.731C61.7971 114.758 61.8577 114.772 61.9192 114.772C61.9767 114.773 62.0336 114.76 62.0854 114.735C62.1372 114.71 62.1826 114.674 62.2181 114.629C62.3094 114.49 62.3514 114.326 62.3375 114.161C62.3499 114 62.3064 113.84 62.2144 113.707C62.1788 113.661 62.1327 113.623 62.0798 113.597C62.0269 113.571 61.9687 113.558 61.9098 113.559C61.8499 113.558 61.7905 113.571 61.7361 113.596C61.6817 113.621 61.6338 113.658 61.5959 113.704C61.5049 113.828 61.4606 113.979 61.4709 114.131Z" fill="white"/>
<path d="M57.821 53.4441L58.855 53.3505C58.888 53.6395 59.0209 53.908 59.231 54.11C59.4485 54.2813 59.7211 54.3679 59.998 54.3535C60.2724 54.3739 60.5454 54.2981 60.7697 54.1391C60.8489 54.0805 60.9136 54.0047 60.9587 53.9173C61.0039 53.83 61.0283 53.7334 61.03 53.6352C61.0334 53.5205 60.995 53.4084 60.922 53.3196C60.8181 53.2133 60.6886 53.1353 60.5459 53.0929C60.4206 53.0499 60.1386 52.9734 59.7 52.8635C59.2675 52.7838 58.8591 52.6063 58.5063 52.3447C58.3533 52.2152 58.2309 52.0538 58.1477 51.8718C58.0645 51.6899 58.0226 51.4919 58.025 51.292C58.0248 51.0252 58.1043 50.7644 58.2534 50.5428C58.414 50.3044 58.6434 50.1201 58.9114 50.0146C59.2404 49.8858 59.5921 49.8247 59.9453 49.8347C60.4767 49.7968 61.004 49.9511 61.4304 50.2693C61.5951 50.4129 61.727 50.59 61.817 50.7888C61.907 50.9875 61.9531 51.2032 61.9521 51.4212L60.8938 51.4653C60.8729 51.2427 60.7693 51.0359 60.6033 50.8855C60.406 50.7536 60.1702 50.691 59.9331 50.7076C59.6784 50.6925 59.4254 50.7581 59.2103 50.8949C59.1571 50.9304 59.1136 50.9787 59.0841 51.0354C59.0545 51.092 59.0397 51.1551 59.0411 51.219C59.0411 51.2803 59.0553 51.3408 59.0825 51.3959C59.1097 51.4509 59.1493 51.499 59.1981 51.5364C59.4972 51.7129 59.8268 51.8321 60.17 51.8876C60.5641 51.9675 60.9474 52.0932 61.312 52.2622C61.5496 52.384 61.7494 52.5679 61.8901 52.7942C62.0338 53.0515 62.1055 53.3426 62.0977 53.637C62.09 53.9314 62.003 54.2183 61.8459 54.4678C61.6761 54.7307 61.4279 54.934 61.1363 55.0494C60.7719 55.1857 60.3841 55.2493 59.9951 55.2367C59.4471 55.2719 58.9049 55.1082 58.4687 54.7759C58.0892 54.4313 57.8573 53.9544 57.821 53.4441Z" fill="black"/>
<path d="M62.9739 50.8602V49.934H63.9787V50.8602H62.9739ZM62.9654 55.158L62.9729 51.3735H63.9777L63.9702 55.158H62.9654Z" fill="black"/>
<path d="M64.9073 55.4109L66.055 55.5523C66.0574 55.6045 66.0703 55.6557 66.0929 55.7028C66.1155 55.7499 66.1474 55.7921 66.1866 55.8267C66.3216 55.9089 66.4791 55.9466 66.6368 55.9344C66.8404 55.9476 67.0439 55.9076 67.2271 55.8183C67.3212 55.7594 67.3922 55.6701 67.4283 55.5654C67.4674 55.4154 67.4832 55.2604 67.4753 55.1056V54.553C67.3513 54.7409 67.1823 54.8951 66.9836 55.0017C66.7849 55.1083 66.5627 55.164 66.337 55.1637C66.0962 55.1687 65.8583 55.1117 65.646 54.9984C65.4338 54.885 65.2545 54.7191 65.1254 54.5165C64.8818 54.139 64.7605 53.696 64.7776 53.2475C64.7422 52.7222 64.9074 52.203 65.2401 51.794C65.3828 51.6328 65.559 51.5045 65.7566 51.4181C65.9542 51.3317 66.1683 51.2894 66.384 51.2939C66.6137 51.2936 66.84 51.3499 67.0426 51.4579C67.2451 51.566 67.4177 51.7223 67.5448 51.913V51.3838H68.4848L68.4782 54.7806C68.491 55.1181 68.4529 55.4555 68.3654 55.7818C68.3061 55.978 68.1989 56.1566 68.0533 56.3015C67.8992 56.4387 67.7161 56.5395 67.5176 56.5965C67.2426 56.674 66.9573 56.7094 66.6716 56.7014C66.1908 56.7441 65.7094 56.6272 65.3021 56.369C65.1741 56.2706 65.071 56.1437 65.0012 55.9985C64.9313 55.8532 64.8966 55.6937 64.8998 55.5326C64.9023 55.4996 64.9048 55.459 64.9073 55.4109ZM65.8097 53.1923C65.7832 53.5042 65.8652 53.8156 66.0419 54.0745C66.1099 54.1623 66.1974 54.2334 66.2975 54.2821C66.3976 54.3309 66.5076 54.3559 66.619 54.3554C66.7376 54.3569 66.8551 54.332 66.9629 54.2826C67.0707 54.2332 67.1661 54.1605 67.2422 54.0698C67.4287 53.8273 67.5197 53.5251 67.4979 53.2203C67.5229 52.9099 67.4374 52.6005 67.2563 52.3466C67.1825 52.2553 67.0887 52.1821 66.9822 52.1324C66.8757 52.0828 66.7591 52.058 66.6416 52.06C66.5272 52.0579 66.4139 52.0821 66.3105 52.1309C66.2071 52.1796 66.1165 52.2515 66.0456 52.341C65.87 52.5891 65.7863 52.8904 65.8087 53.1932L65.8097 53.1923Z" fill="black"/>
<path d="M72.9308 55.1777H71.9259V53.2456C71.9406 52.9796 71.9194 52.7128 71.863 52.4524C71.8255 52.3388 71.7523 52.2403 71.6543 52.1714C71.5513 52.1028 71.4294 52.0678 71.3056 52.0712C71.138 52.0685 70.9737 52.1179 70.8356 52.2126C70.7022 52.3026 70.603 52.4345 70.5536 52.5872C70.4884 52.8721 70.4618 53.1644 70.4747 53.4563V55.1702H69.4698L69.4774 51.3857H70.4107V51.942C70.6169 51.6592 70.9129 51.4541 71.2507 51.3599C71.5885 51.2657 71.9483 51.288 72.2718 51.4231C72.4347 51.4875 72.5781 51.5927 72.6882 51.7284C72.7825 51.8532 72.8492 51.9966 72.8837 52.1489C72.9263 52.3708 72.9445 52.5965 72.9383 52.8223L72.9308 55.1777Z" fill="black"/>
<path d="M75.995 49.9584H77.0534L77.0477 52.7876C77.0385 53.0791 77.051 53.3709 77.0853 53.6605C77.1246 53.8665 77.2396 54.0504 77.4077 54.1765C77.6128 54.3168 77.8587 54.3856 78.107 54.3722C78.3478 54.3897 78.5874 54.3254 78.7866 54.1896C78.9323 54.0794 79.031 53.9186 79.063 53.7392C79.1014 53.4452 79.1174 53.1487 79.1109 52.8523L79.1166 49.9621H80.175L80.1693 52.7062C80.182 53.1509 80.1524 53.5959 80.0809 54.0351C80.0318 54.2767 79.9226 54.5021 79.7632 54.6907C79.5941 54.8789 79.3824 55.0243 79.1457 55.1149C78.8226 55.2308 78.4803 55.2839 78.1371 55.2713C77.7495 55.2894 77.3621 55.2298 76.9979 55.0962C76.7608 54.9964 76.5507 54.842 76.3851 54.6457C76.2433 54.4775 76.142 54.2792 76.089 54.066C76.0086 53.6287 75.9746 53.1842 75.9875 52.7399L75.995 49.9584Z" fill="black"/>
<path d="M81.254 51.409H82.194V51.9653C82.3183 51.7731 82.4881 51.6143 82.6884 51.5027C82.8988 51.3835 83.1373 51.3224 83.3792 51.3257C83.5932 51.3242 83.8047 51.37 83.9988 51.4597C84.1928 51.5494 84.3645 51.6808 84.5015 51.8445C84.8293 52.2509 84.9929 52.7646 84.9602 53.2849C84.9919 53.817 84.8244 54.3419 84.4902 54.7581C84.3531 54.9234 84.1807 55.0561 83.9856 55.1467C83.7905 55.2372 83.5776 55.2833 83.3623 55.2816C83.165 55.2841 82.9697 55.2412 82.7918 55.1561C82.5881 55.0465 82.406 54.9012 82.2541 54.7272V56.6339H81.2493L81.254 51.409ZM82.2447 53.239C82.2175 53.5729 82.3064 53.9059 82.4966 54.1821C82.569 54.2772 82.6625 54.3544 82.7698 54.4075C82.8771 54.4607 82.9953 54.4883 83.1151 54.4884C83.2276 54.4897 83.3389 54.4651 83.4401 54.4163C83.5414 54.3676 83.63 54.296 83.6988 54.2074C83.8782 53.9367 83.9606 53.6137 83.9329 53.2905C83.9578 52.9774 83.8738 52.6652 83.6951 52.4064C83.6254 52.3158 83.5355 52.2425 83.4326 52.1923C83.3297 52.1421 83.2165 52.1164 83.1019 52.1171C82.9853 52.1147 82.8696 52.1387 82.7636 52.1874C82.6576 52.236 82.564 52.3081 82.49 52.398C82.3101 52.6402 82.2231 52.9385 82.2447 53.239Z" fill="black"/>
<path d="M33.2336 57.1872C45.3996 56.7349 54.894 46.5416 54.44 34.4199C53.9861 22.2982 43.7556 12.8383 31.5897 13.2906C19.4237 13.7429 9.9293 23.9362 10.3833 36.0579C10.8372 48.1796 21.0677 57.6395 33.2336 57.1872Z" fill="#E0E0E0"/>
<path d="M45.0386 5.55267C44.6531 6.03437 44.4178 6.61812 44.3619 7.23168C44.3059 7.84523 44.4317 8.46167 44.7237 9.00472C45.0734 9.44968 45.3318 9.95884 45.4842 10.5032C45.5875 11.4135 44.7021 12.232 44.844 13.1367C44.938 13.7501 45.4766 14.1894 45.7605 14.7419C45.9374 15.1012 46.0085 15.503 45.9654 15.9009C45.9223 16.2987 45.7668 16.6762 45.5171 16.9896C45.1157 17.4775 44.4831 17.7875 44.2274 18.3626C44.0347 18.7887 44.0808 19.2879 43.9257 19.7299C43.7788 20.0665 43.547 20.3595 43.2529 20.5803C42.9587 20.8012 42.6122 20.9425 42.247 20.9905C41.516 21.0775 40.7753 21.0359 40.0588 20.8678L40.2167 20.0792C40.08 20.2891 39.8943 20.4626 39.6753 20.585C39.4564 20.7074 39.2109 20.7748 38.96 20.7816C38.4584 20.7899 37.9588 20.7159 37.4814 20.5625C37.0695 19.2472 37.0121 17.847 37.3151 16.5026C37.814 15.3718 38.5021 14.3337 39.35 13.4327C40.1849 12.344 40.8532 11.138 41.3333 9.85417C41.6215 8.91244 41.9804 7.9936 42.4068 7.10543C42.6235 6.66177 42.934 6.27013 43.3171 5.95746C43.7002 5.64479 44.1467 5.41852 44.626 5.29419" fill="#263238"/>
<path d="M59.3804 24.0014L55.02 24.2964L54.9777 23.1801C54.9179 22.6261 55.0506 22.0684 55.3536 21.6001C55.401 21.517 55.4359 21.4274 55.457 21.3342C55.3119 20.4523 55.0992 19.5828 54.8207 18.7334C54.6073 18.0029 55.0237 17.6161 55.1854 17.9139C55.4815 18.4599 56.2607 20.806 56.5013 21.0204C56.742 21.2349 56.6057 20.0249 56.6057 20.0249C56.2222 17.4438 56.0567 17.0683 56.5183 16.9709C57.0465 16.8585 57.6302 20.702 57.6302 20.702C57.6302 20.702 57.5513 20.1644 57.9648 20.0558C58.3784 19.9472 58.5692 20.4772 58.5692 20.4772C58.5175 20.2038 58.9095 20.1598 58.9095 20.1598C59.888 20.2937 59.3794 23.9995 59.3794 23.9995L55.019 24.2945L52.9305 38.8267L50.6981 35.4224L44.8779 39.561L50.1266 45.7973C50.5819 46.3384 51.1553 46.7686 51.8031 47.0551C52.4508 47.3416 53.1557 47.4767 53.8638 47.4503C55.0225 47.4072 56.1233 46.9344 56.9503 46.1246C57.7772 45.3149 58.2708 44.2265 58.3342 43.073L59.3804 24.0014Z" fill="#EB996E"/>
<path d="M55.9646 24.037C55.9467 24.0173 56.178 23.8122 56.4872 23.4311C56.6678 23.2082 56.8317 22.9725 56.9779 22.7259C57.0606 22.5872 57.1414 22.4374 57.2166 22.2791C57.3044 22.1346 57.3557 21.971 57.3661 21.8024C57.3645 21.7636 57.3517 21.726 57.3292 21.6943C57.3067 21.6626 57.2754 21.638 57.2392 21.6236C57.1542 21.6085 57.0665 21.6231 56.991 21.6648C56.8186 21.7436 56.6553 21.8409 56.5041 21.9551C56.2616 22.1396 56.0519 22.3635 55.8838 22.6172L55.8349 22.6912L55.7964 22.6135C55.7053 22.4483 55.5864 22.3001 55.4448 22.1752C55.4448 22.163 55.6845 22.2304 55.8857 22.5685H55.7982C55.9551 22.2899 56.1641 22.0439 56.4139 21.8436C56.5711 21.7172 56.7427 21.6097 56.9252 21.5234C57.0354 21.4636 57.1636 21.4453 57.2862 21.4719C57.3527 21.4951 57.4109 21.5372 57.4538 21.5929C57.4967 21.6486 57.5224 21.7156 57.5277 21.7856C57.5228 21.9843 57.4651 22.1782 57.3604 22.3475C57.1538 22.7682 56.8894 23.1581 56.5746 23.506C56.4044 23.7175 56.1978 23.8973 55.9646 24.037Z" fill="#D1734A"/>
<path d="M57.6876 20.9521C57.7148 21.218 57.7148 21.486 57.6876 21.7519L57.6406 22.6135C57.6231 22.778 57.6187 22.9437 57.6274 23.1089C57.6377 23.2597 57.7731 23.3899 57.884 23.33C57.9949 23.27 58.0569 23.0799 58.103 22.9151C58.1491 22.7503 58.1895 22.5826 58.2233 22.4243C58.291 22.1087 58.3418 21.8203 58.3878 21.5814C58.4196 21.3159 58.4827 21.055 58.5758 20.8041C58.5751 21.0708 58.5508 21.3368 58.5034 21.5993C58.4724 21.8437 58.4329 22.1349 58.3728 22.4571C58.3418 22.6182 58.306 22.7868 58.259 22.961C58.2456 23.0628 58.2122 23.161 58.1605 23.2498C58.1089 23.3387 58.0402 23.4165 57.9583 23.4789C57.9013 23.5064 57.8372 23.5157 57.7748 23.5054C57.7123 23.4952 57.6546 23.466 57.6095 23.4217C57.5306 23.3453 57.4816 23.2434 57.4714 23.1342C57.4623 22.9595 57.4693 22.7842 57.492 22.6107L57.5748 21.7472C57.5846 21.479 57.6224 21.2125 57.6876 20.9521Z" fill="#D1734A"/>
<path d="M58.4207 22.0488C58.4461 22.0562 58.3822 22.2304 58.4019 22.5105C58.4067 22.666 58.4534 22.8174 58.5372 22.9488C58.5908 23.0003 58.6265 23.0021 58.6792 22.9422C58.7338 22.8566 58.7812 22.7667 58.8211 22.6734C59.0199 22.18 59.1771 21.671 59.2911 21.1516C59.3384 21.7018 59.2272 22.2541 58.9705 22.7437C58.9255 22.85 58.8695 22.9514 58.8033 23.0462C58.7799 23.0751 58.7504 23.0984 58.717 23.1146C58.6835 23.1308 58.6468 23.1394 58.6096 23.1398C58.5733 23.1389 58.5376 23.1301 58.5051 23.1139C58.4726 23.0977 58.4441 23.0746 58.4216 23.0462C58.3596 22.9638 58.3195 22.8671 58.3051 22.7652C58.2896 22.6828 58.2827 22.599 58.2844 22.5151C58.2966 22.2052 58.4085 22.0394 58.4207 22.0488Z" fill="#D1734A"/>
<path d="M40.0654 49.3664L40.4742 55.6862C36.9067 57.059 33.0445 57.493 29.2597 56.9464C25.4749 56.3999 21.8953 54.8911 18.8657 52.5656L20.7221 46.9118L21.0483 37.0389L18.6542 39.6855L17.5263 38.749L11.8396 34.0242L10.6177 33.0109L16.5177 26.8045C23.9762 18.8037 29.7823 21.2592 29.7823 21.2592L38.5079 22.0722C38.5079 22.0722 44.5424 22.9235 47.4618 28.1943C49.839 32.4855 52.4276 37.0286 52.4276 37.0286L44.9512 42.3453L42.5797 37.9913L40.0654 49.3664Z" fill="#49476F"/>
<path d="M10.3667 35.1555C10.362 35.5255 10.3761 35.8954 10.3902 36.2691C10.4417 37.7346 10.6407 39.1914 10.9843 40.6174L10.9955 40.6586C11.0388 40.8356 11.0895 41.0088 11.1384 41.184C11.333 41.8714 11.5886 42.4773 11.8358 43.1432C11.8678 43.2266 11.8979 43.3099 11.9298 43.3923C12.7194 43.1863 14.8174 41.2102 17.3816 38.6272L11.6996 33.9062C11.3245 34.3904 10.8746 34.8121 10.3667 35.1555Z" fill="#EB996E"/>
<path d="M37.7202 22.8888C38.0247 20.7348 38.3857 18.4749 38.3857 18.4749C38.3857 18.4749 41.2347 18.3972 42.3128 14.8562C43.3411 11.479 43.874 3.43048 43.874 3.43048C42.007 2.36797 39.8585 1.89973 37.7167 2.08855C35.5749 2.27738 33.5423 3.11424 31.8915 4.48689L29.7052 22.015C29.6586 22.515 29.7122 23.0192 29.8629 23.4984C30.0136 23.9775 30.2583 24.4221 30.583 24.8061C30.9077 25.1901 31.3057 25.506 31.754 25.7354C32.2023 25.9648 32.6919 26.1031 33.1943 26.1423C34.2248 26.2902 35.2727 26.0337 36.117 25.4267C36.9614 24.8197 37.5361 23.9098 37.7202 22.8888Z" fill="#EB996E"/>
<path d="M41.98 9.51234C41.9645 9.63353 41.902 9.74386 41.806 9.8198C41.7099 9.89574 41.5879 9.93127 41.4659 9.9188C41.406 9.91526 41.3475 9.89983 41.2937 9.87345C41.2399 9.84706 41.192 9.81024 41.1527 9.76514C41.1133 9.72004 41.0835 9.66758 41.0648 9.61082C41.0461 9.55406 41.039 9.49414 41.0438 9.4346C41.0592 9.31324 41.1215 9.20268 41.2176 9.12655C41.3137 9.05041 41.4359 9.01476 41.558 9.02722C41.6179 9.03075 41.6765 9.0462 41.7304 9.07264C41.7842 9.09909 41.8323 9.13601 41.8716 9.18121C41.9109 9.22641 41.9408 9.27899 41.9594 9.33586C41.978 9.39273 41.985 9.45273 41.98 9.51234Z" fill="#263238"/>
<path d="M42.8053 9.09653C42.7395 9.14898 42.4218 8.83993 41.9208 8.7725C41.4198 8.70507 41.0175 8.90453 40.9715 8.83523C40.9489 8.80432 41.0222 8.70318 41.1989 8.60953C41.4367 8.48939 41.7059 8.44554 41.9697 8.48403C42.2306 8.51897 42.4735 8.63575 42.6634 8.81744C42.8053 8.95886 42.8391 9.07312 42.8053 9.09653Z" fill="#263238"/>
<path d="M36.8338 8.89516C36.8182 9.01635 36.7558 9.12668 36.6597 9.20261C36.5637 9.27855 36.4416 9.31407 36.3196 9.3016C36.2598 9.29806 36.2013 9.28265 36.1475 9.25626C36.0937 9.22987 36.0457 9.19305 36.0064 9.14795C35.9671 9.10285 35.9372 9.05038 35.9186 8.99362C35.8999 8.93686 35.8927 8.87695 35.8976 8.81742C35.9129 8.69606 35.9753 8.58549 36.0714 8.50936C36.1675 8.43323 36.2896 8.39757 36.4118 8.41003C36.4717 8.41357 36.5303 8.42901 36.5842 8.45546C36.638 8.4819 36.686 8.51882 36.7253 8.56402C36.7647 8.60922 36.7945 8.6618 36.8131 8.71867C36.8318 8.77554 36.8388 8.83554 36.8338 8.89516Z" fill="#263238"/>
<path d="M37.5501 8.55892C37.4843 8.61136 37.1666 8.30231 36.6656 8.23488C36.1646 8.16745 35.7623 8.36694 35.7162 8.29763C35.6937 8.26673 35.767 8.16558 35.9437 8.07193C36.1814 7.95179 36.4507 7.90795 36.7144 7.94643C36.9753 7.98144 37.2183 8.0982 37.4081 8.27984C37.5416 8.41845 37.582 8.5355 37.5501 8.55892Z" fill="#263238"/>
<path d="M38.8575 12.5176C39.1332 12.4715 39.4136 12.4598 39.6922 12.483C39.8219 12.483 39.9469 12.483 39.9808 12.395C40.0098 12.2648 39.9983 12.1289 39.9479 12.0054L39.7035 10.9817C39.4659 10.1105 39.299 9.2217 39.2044 8.32385C39.5116 9.17412 39.7499 10.0476 39.9168 10.9358C39.9964 11.2942 40.0722 11.6376 40.1443 11.966C40.204 12.1306 40.204 12.3109 40.1443 12.4755C40.1195 12.5178 40.0854 12.554 40.0445 12.5813C40.0037 12.6085 39.9571 12.6262 39.9084 12.6328C39.8347 12.6422 39.7602 12.6422 39.6866 12.6328C39.4064 12.6298 39.1278 12.5911 38.8575 12.5176Z" fill="#263238"/>
<path d="M38.3875 18.474C36.6724 18.2635 35.0496 17.5826 33.7 16.5073C33.7 16.5073 34.5366 19.1567 38.2202 19.3169L38.3875 18.474Z" fill="#D1734A"/>
<path d="M40.1133 2.30947C40.1977 2.6071 40.1786 2.92441 40.0592 3.20987C39.9397 3.49533 39.7269 3.73217 39.4553 3.88191C38.904 4.167 38.3002 4.33746 37.6807 4.38295C37.059 4.42916 36.4642 4.65395 35.9681 5.0301C35.1165 5.79899 35.3327 6.91159 34.4792 7.90525C34.2793 8.1868 34.0041 8.4068 33.6849 8.54024C33.3657 8.67368 33.0153 8.7152 32.6736 8.66009C32.302 8.5711 31.9114 8.60654 31.5621 8.76092C31.2128 8.91531 30.9242 9.18005 30.7411 9.51421C30.4074 10.2691 30.8134 10.8918 31.1997 11.6214C31.36 11.9766 31.4482 12.3599 31.4592 12.7492C31.4702 13.1385 31.4037 13.5261 31.2637 13.8897C31.1058 14.4657 30.6113 14.9152 30.4995 15.5015C30.3237 16.4249 31.1274 17.4794 30.5841 18.2483C30.0408 19.0172 28.6769 18.6669 28.0613 19.3806C27.8422 19.6344 27.7201 20.0184 27.3948 20.1045C27.1945 20.1335 26.9901 20.0963 26.813 19.9987L23.9819 18.8093L24.2046 17.9355C23.9947 18.1455 23.7381 18.3033 23.4555 18.396C23.173 18.4888 22.8725 18.5139 22.5784 18.4694C22.2843 18.4249 22.0048 18.312 21.7627 18.1398C21.5205 17.9677 21.3225 17.7411 21.1846 17.4785C21.7748 17.137 22.3214 16.7257 22.8126 16.2535C23.3062 15.775 23.609 15.1345 23.6651 14.4507C23.6952 13.6293 23.2468 12.7949 23.4978 12.0157C23.8568 10.8919 25.3683 10.6109 26.0479 9.65001C26.6823 8.75094 26.4624 7.44635 27.1119 6.55945C27.8639 5.52927 29.4618 5.47963 30.3275 4.53748C30.7952 3.81018 31.1799 3.03302 31.4742 2.2205C32.0256 1.32789 32.8881 0.669301 33.8965 0.370845C34.8976 0.0795158 35.9407 -0.0420569 36.9823 0.0112145C37.7638 -0.024281 38.5422 0.131348 39.2495 0.464504C39.5986 0.63847 39.8854 0.915632 40.0704 1.2581C40.2555 1.60058 40.3299 1.99164 40.2834 2.37784" fill="#263238"/>
<path d="M32.6726 8.65917C32.2948 8.52306 31.8867 8.49324 31.493 8.573C31.0974 8.6558 30.7509 8.89158 30.5295 9.22859C30.3279 9.57843 30.2671 9.99147 30.3594 10.3843C30.4534 10.7739 30.6336 11.1377 30.8867 11.4491C31.053 11.6841 31.2726 11.8767 31.5278 12.011C31.656 12.0767 31.7985 12.1099 31.9427 12.1074C32.0868 12.105 32.2281 12.067 32.354 11.997" fill="#EB996E"/>
<path d="M32.1322 10.9761C32.1745 10.9967 31.9733 11.2074 31.6312 11.0632C31.4489 10.9725 31.31 10.8136 31.2449 10.6212C31.1664 10.4072 31.131 10.18 31.1405 9.95249C31.1459 9.71033 31.2375 9.47797 31.399 9.29692C31.4674 9.21929 31.5526 9.15818 31.6482 9.11826C31.7438 9.07834 31.8473 9.06066 31.9508 9.06653C32.3173 9.10867 32.3954 9.37652 32.3531 9.37839C32.3202 9.40368 32.1961 9.25384 31.9489 9.27913C31.7948 9.31439 31.6586 9.40372 31.5652 9.53081C31.4719 9.6579 31.4275 9.81424 31.4404 9.97122C31.4162 10.135 31.4298 10.3022 31.4803 10.46C31.5308 10.6177 31.6168 10.7619 31.7317 10.8815C31.9385 11.0192 32.1124 10.9415 32.1322 10.9761Z" fill="#D1734A"/>
<path d="M40.1236 2.50429C39.9817 2.89477 39.9789 3.32204 40.1159 3.7143C40.2528 4.10655 40.5211 4.43989 40.8756 4.65832C41.3151 4.82165 41.7364 5.03038 42.1323 5.2811C42.4522 5.62752 42.6381 6.07597 42.6568 6.54636C42.6738 7.01323 42.7615 7.47487 42.9171 7.91557C42.9999 8.13437 43.151 8.32095 43.3481 8.44789C43.5452 8.57482 43.778 8.63542 44.0122 8.62079L44.797 6.30942C45.1646 5.48252 45.2948 4.57023 45.173 3.67403C44.962 3.06534 44.5943 2.52251 44.1068 2.0998C43.6192 1.6771 43.0287 1.38932 42.3945 1.26526C41.8268 1.06502 41.2064 1.07066 40.6425 1.28118C40.3677 1.39726 40.1485 1.61467 40.0308 1.88798C39.9131 2.16128 39.9059 2.46934 40.0108 2.74778" fill="#263238"/>
<path d="M24.9998 19.1811C25.0661 19.1197 25.1288 19.0547 25.1878 18.9863C25.3364 18.776 25.4245 18.5293 25.4425 18.2727C25.4567 17.8634 25.4337 17.4538 25.3739 17.0486C25.348 16.7865 25.3736 16.5219 25.4491 16.2694C25.5398 15.9868 25.6908 15.727 25.8918 15.508C26.3007 15.0398 26.876 14.682 27.3723 14.1847C27.6321 13.9373 27.8259 13.6293 27.9362 13.2885C28.0293 12.9207 28.0399 12.537 27.9672 12.1646C27.908 11.7731 27.8084 11.3732 27.7576 10.9471C27.6577 10.2633 27.8222 9.56711 28.2177 8.99946C28.6133 8.43181 29.2105 8.03502 29.8885 7.88934C30.7811 7.83583 31.6643 7.67867 32.5204 7.42108C32.8869 7.22532 33.1767 6.91222 33.3428 6.5323C33.5048 6.15961 33.6381 5.77514 33.7414 5.38225C33.8438 4.99799 33.9994 4.62983 34.2038 4.28838C34.4125 3.965 34.7156 3.71303 35.0723 3.56631C35.7113 3.35084 36.3902 3.27887 37.0603 3.35559C37.6005 3.40851 38.1457 3.37692 38.6761 3.26194C39.0732 3.16919 39.4394 2.9756 39.7392 2.70002C39.9087 2.50654 40.0178 2.26794 40.0531 2.01354C40.0841 1.83934 40.0841 1.74475 40.0935 1.74475C40.1013 1.8359 40.0988 1.92764 40.086 2.01823C40.0629 2.28399 39.9585 2.53632 39.7871 2.74123C39.4855 3.03565 39.1109 3.24506 38.7015 3.3481C38.163 3.47495 37.6078 3.51542 37.0566 3.46798C36.4046 3.40053 35.7457 3.47564 35.1259 3.68807C34.7959 3.82666 34.5164 4.06264 34.3251 4.36424C34.1308 4.69555 33.9834 5.05199 33.887 5.42346C33.7839 5.82467 33.6497 6.21731 33.4857 6.59787C33.3936 6.79727 33.2737 6.98266 33.1294 7.14855C32.9766 7.31544 32.7959 7.45484 32.5955 7.56062C31.7284 7.8289 30.8317 7.99087 29.9252 8.04294C29.2858 8.18003 28.7225 8.55376 28.3489 9.08863C27.9754 9.62351 27.8195 10.2797 27.9127 10.9246C27.9597 11.3348 28.0575 11.7338 28.1158 12.1347C28.1904 12.53 28.1759 12.9369 28.0735 13.3259C27.9545 13.6882 27.7464 14.015 27.4681 14.2765C26.9502 14.785 26.3768 15.1353 25.9774 15.5811C25.7927 15.774 25.6514 16.0039 25.5631 16.2555C25.4748 16.5072 25.4413 16.7747 25.4651 17.0402C25.5182 17.4503 25.5318 17.8646 25.5055 18.2774C25.48 18.5425 25.3786 18.7948 25.2132 19.0041C25.1549 19.077 25.0823 19.1372 24.9998 19.1811Z" fill="#455A64"/>
<path d="M41.7939 20.9989C41.8466 20.9468 41.8959 20.8915 41.9415 20.8331C42.0572 20.6563 42.1222 20.4513 42.1295 20.2403C42.1549 19.9659 42.0825 19.6297 42.1013 19.2232C42.1591 18.7649 42.3517 18.3338 42.6549 17.9842C43.0167 17.5878 43.2837 17.1149 43.436 16.601C43.4549 15.984 43.3681 15.3683 43.1794 14.7803C43.1099 14.4361 43.1244 14.0802 43.2217 13.7427C43.3379 13.401 43.5032 13.078 43.7124 12.7836C43.9126 12.4811 44.1335 12.1908 44.3073 11.8715C44.4953 11.559 44.6031 11.2052 44.6213 10.8413C44.6063 10.478 44.4854 10.1268 44.2735 9.83076C44.0582 9.52674 43.8846 9.19539 43.7575 8.84552C43.6273 8.15604 43.6273 7.44842 43.7575 6.75893C43.7912 6.4453 43.7843 6.12864 43.7368 5.81679C43.6883 5.52704 43.5695 5.25347 43.3909 5.0198C43.0367 4.61524 42.6017 4.2889 42.1135 4.06172C41.7043 3.86606 41.3147 3.63214 40.9498 3.36308C40.6729 3.15571 40.4408 2.89484 40.2674 2.59605C40.1565 2.40675 40.0921 2.19397 40.0794 1.97512C40.0741 1.89987 40.0792 1.82425 40.0945 1.75037C40.1039 1.75037 40.0945 1.82903 40.1123 1.97325C40.137 2.18354 40.2076 2.38589 40.3191 2.56607C40.4972 2.85037 40.7293 3.09725 41.0025 3.29282C41.3685 3.55052 41.7574 3.77435 42.1643 3.96151C42.6724 4.18978 43.1261 4.52307 43.4952 4.93926C43.6883 5.18897 43.8174 5.48181 43.8712 5.79243C43.9236 6.11664 43.9334 6.44626 43.9003 6.77298C43.7789 7.44366 43.7815 8.13081 43.9079 8.80058C44.0324 9.13751 44.2012 9.45651 44.4098 9.74929C44.6395 10.0703 44.7701 10.4511 44.7858 10.845C44.7677 11.2359 44.6528 11.6162 44.4512 11.952C44.2697 12.2854 44.0442 12.5795 43.8468 12.8754C43.647 13.1568 43.4887 13.4652 43.3768 13.7914C43.2846 14.106 43.2698 14.4382 43.3336 14.7597C43.5234 15.3652 43.6052 15.9992 43.5751 16.6328C43.5147 16.9193 43.3957 17.1903 43.2255 17.4289C43.0713 17.6592 42.904 17.8625 42.7555 18.0601C42.4592 18.3901 42.2664 18.7994 42.2009 19.2373C42.1737 19.6241 42.2366 19.9687 42.2009 20.2534C42.1865 20.4735 42.1081 20.6847 41.9753 20.8612C41.9269 20.9211 41.8647 20.9683 41.7939 20.9989Z" fill="#455A64"/>
<path d="M21.8021 17.7173C21.8021 17.7079 21.9046 17.7351 22.0992 17.7417C22.3832 17.7474 22.6651 17.6928 22.9263 17.5815C23.3394 17.4076 23.6956 17.1221 23.9546 16.7574C24.2863 16.2652 24.4809 15.6941 24.5186 15.1025C24.5258 14.3798 24.4894 13.6574 24.4095 12.9391C24.3869 12.5206 24.4792 12.1039 24.6765 11.7338C24.936 11.3774 25.2739 11.0849 25.6644 10.8787C26.0547 10.6776 26.3729 10.3609 26.5752 9.97218C26.7174 9.5338 26.7851 9.07482 26.7754 8.61421C26.7809 8.11737 26.8764 7.6256 27.0574 7.16258C27.1569 6.92213 27.3007 6.70233 27.4813 6.5145C27.6835 6.33686 27.9328 6.2211 28.1994 6.18109C28.7202 6.08744 29.2268 6.14552 29.7099 6.09214C30.1843 6.05981 30.6316 5.86066 30.9723 5.53021C31.2973 5.20233 31.5648 4.82245 31.7637 4.40637C31.9743 4.00179 32.1397 3.58222 32.3352 3.18419C32.5217 2.79099 32.7587 2.42361 33.0402 2.09127C33.3096 1.76941 33.6637 1.52877 34.0628 1.39636C34.4405 1.29008 34.8404 1.29008 35.218 1.39636C35.5576 1.49147 35.8884 1.61523 36.2069 1.76629C36.7324 2.04758 37.3063 2.22802 37.8988 2.29823C38.3465 2.3203 38.7941 2.25213 39.2147 2.09781C39.5743 1.96175 39.9111 1.77231 40.2139 1.5359C40.1465 1.61026 40.0715 1.67743 39.9902 1.73632C39.7603 1.91036 39.5072 2.05158 39.2382 2.15589C38.8107 2.32499 38.3528 2.40407 37.8931 2.38815C37.2886 2.32636 36.7013 2.1506 36.1627 1.87024C35.8489 1.72561 35.5235 1.6075 35.1898 1.51717C34.8343 1.41963 34.4586 1.42191 34.1042 1.52373C33.7306 1.65129 33.3999 1.8799 33.1492 2.18398C32.8779 2.50834 32.6498 2.86624 32.4706 3.24881C32.1545 4.12386 31.6844 4.93573 31.0823 5.64633C30.9014 5.82081 30.6923 5.96361 30.4638 6.06871C30.2301 6.17086 29.9811 6.23413 29.7268 6.25602C29.224 6.31034 28.7145 6.25603 28.2295 6.34406C27.9932 6.37862 27.7719 6.48039 27.5922 6.63718C27.4281 6.80992 27.2972 7.01117 27.2059 7.23095C27.0324 7.67647 26.9407 8.14945 26.9352 8.62732C26.9434 9.10631 26.87 9.58323 26.7181 10.0377C26.503 10.454 26.1634 10.7934 25.7462 11.0089C25.3736 11.2023 25.05 11.4774 24.7996 11.8134C24.6145 12.1603 24.5268 12.5505 24.5458 12.9429C24.6209 13.6652 24.6504 14.3915 24.6342 15.1175C24.5897 15.7265 24.3823 16.3124 24.0336 16.8145C23.7601 17.1874 23.3859 17.4752 22.9545 17.6443C22.6841 17.7523 22.3926 17.7981 22.102 17.7782C21.9997 17.7714 21.8989 17.7509 21.8021 17.7173Z" fill="#455A64"/>
<path d="M44.8271 5.81868C44.8033 5.50445 44.715 5.19844 44.5677 4.9196C44.3968 4.62517 44.1709 4.36609 43.9022 4.15634C43.5651 3.90424 43.1995 3.69237 42.8128 3.5251C42.4021 3.3378 42.0007 3.16642 41.6511 2.97255C41.3374 2.80543 41.0478 2.59688 40.7901 2.35257C40.6166 2.18646 40.4713 1.99355 40.3596 1.78128C40.3127 1.70644 40.2826 1.62244 40.2712 1.53497C40.4373 1.80478 40.6383 2.05165 40.869 2.26923C41.1293 2.49355 41.4159 2.68568 41.7225 2.84144C42.0665 3.02313 42.4669 3.18608 42.8824 3.37807C43.2812 3.55078 43.6561 3.77362 43.9981 4.04114C44.2766 4.26764 44.5054 4.5488 44.6702 4.86715C44.7815 5.08192 44.8456 5.31788 44.8582 5.55926C44.8679 5.64696 44.8573 5.73572 44.8271 5.81868Z" fill="#455A64"/>
<path d="M37.7399 7.31712C37.708 7.35271 37.598 7.30494 37.4213 7.26373C36.9561 7.15598 36.4726 7.15407 36.0066 7.25811C35.829 7.29745 35.72 7.34521 35.688 7.30869C35.656 7.27216 35.7303 7.15416 35.9192 7.04459C36.166 6.91918 36.4392 6.85434 36.7162 6.85548C36.9931 6.85662 37.2658 6.9237 37.5115 7.05113C37.6986 7.16164 37.77 7.28715 37.7399 7.31712Z" fill="#263238"/>
<path d="M42.3148 7.93253C42.3277 7.84346 42.0209 7.7254 41.6294 7.66882C41.2379 7.61225 40.9101 7.63858 40.8971 7.72765C40.8841 7.81672 41.191 7.93478 41.5824 7.99135C41.9739 8.04793 42.3018 8.02159 42.3148 7.93253Z" fill="#263238"/>
<path d="M31.3501 11.9108C31.3501 11.9108 31.3812 11.9342 31.4272 11.9895C31.4941 12.0713 31.5506 12.1609 31.5955 12.2564C31.7589 12.6145 31.8075 13.0142 31.7346 13.4008C31.6314 13.9642 31.4411 14.5082 31.1706 15.0135C31.0232 15.2983 30.9742 15.6236 31.0315 15.9388C31.1393 16.2743 31.2876 16.5953 31.4733 16.895C31.6643 17.2077 31.748 17.5739 31.7118 17.9382C31.6755 18.3024 31.5212 18.6451 31.2721 18.9142C31.0608 19.1539 30.7811 19.3235 30.4703 19.4003C30.2074 19.4546 29.9399 19.484 29.6714 19.4883C29.2941 19.4771 28.9213 19.5726 28.5961 19.7636C28.4859 19.8461 28.3878 19.9435 28.3047 20.053C28.3047 20.053 28.3104 20.0137 28.347 19.9509C28.4015 19.8588 28.4733 19.778 28.5585 19.7131C28.8841 19.492 29.269 19.3739 29.6629 19.374C29.9234 19.3623 30.1822 19.3275 30.4365 19.2701C30.7179 19.1948 30.9699 19.0365 31.1593 18.8159C31.3709 18.5739 31.5062 18.2752 31.5485 17.9571C31.5836 17.6133 31.5065 17.2675 31.3285 16.9709C31.1361 16.6595 30.9842 16.3249 30.8764 15.9754C30.8137 15.6275 30.8689 15.2687 31.0334 14.9555C31.1687 14.6586 31.3154 14.3992 31.4094 14.1332C31.502 13.8902 31.5728 13.6395 31.6209 13.384C31.7006 13.0169 31.6718 12.6347 31.5381 12.2836C31.4319 12.0373 31.3379 11.9202 31.3501 11.9108Z" fill="#263238"/>
<path d="M45.8996 20.3077C45.8369 20.3362 45.7682 20.349 45.6994 20.3452C45.5999 20.3382 45.5027 20.3114 45.4136 20.2665C45.3245 20.2217 45.2453 20.1596 45.1806 20.0839C45.0725 19.9676 44.993 19.8279 44.9485 19.6758C44.904 19.5236 44.8956 19.3633 44.924 19.2073C45.0209 18.8041 45.232 18.4372 45.5321 18.15C45.8887 17.8239 46.2043 17.456 46.472 17.0542C46.599 16.8254 46.6601 16.5662 46.6488 16.305C46.6311 16.0256 46.5653 15.7512 46.4542 15.494C46.1729 14.9391 45.9218 14.3695 45.7022 13.7876C45.6026 13.458 45.5987 13.107 45.691 12.7752C45.8163 12.4561 45.9737 12.1505 46.1609 11.863C46.3388 11.5952 46.4105 11.2712 46.3621 10.9537C46.2773 10.6511 46.1104 10.3776 45.8799 10.1632C45.6628 9.9319 45.4249 9.71745 45.2219 9.4702C45.0195 9.22843 44.8741 8.94458 44.7961 8.63949C44.6731 8.07953 44.6812 7.49887 44.8196 6.9425C44.9315 6.42366 45.0791 5.95633 45.173 5.52178C45.3689 4.8461 45.3359 4.12493 45.079 3.46984C44.969 3.23776 44.8199 3.02616 44.6382 2.84424C44.6382 2.84424 44.6551 2.85173 44.6824 2.87233C44.7232 2.90203 44.7615 2.93491 44.7971 2.97067C44.9364 3.10614 45.0512 3.26456 45.1364 3.43893C45.2708 3.71792 45.3524 4.01922 45.377 4.32771C45.4065 4.73593 45.3749 5.14626 45.283 5.54519C45.1947 5.98723 45.0527 6.45832 44.9484 6.96966C44.8204 7.50558 44.8166 8.06347 44.9371 8.60109C45.0112 8.88485 45.148 9.14852 45.3375 9.3728C45.5255 9.60693 45.7643 9.81765 45.9889 10.0546C46.241 10.2897 46.4226 10.5899 46.5134 10.9218C46.5703 11.2772 46.493 11.6409 46.2963 11.9426C46.1155 12.221 45.9628 12.5166 45.8404 12.8249C45.7568 13.1276 45.7607 13.4477 45.8517 13.7483C46.0678 14.3244 46.3131 14.8893 46.5867 15.4406C46.7024 15.7145 46.7695 16.0064 46.7851 16.3031C46.7944 16.5886 46.7248 16.8711 46.5839 17.1198C46.3069 17.5289 45.9794 17.9018 45.6092 18.2296C45.3181 18.4982 45.1093 18.8433 45.0067 19.2251C44.9775 19.3687 44.9817 19.5171 45.019 19.6588C45.0563 19.8006 45.1257 19.9319 45.2219 20.0427C45.3383 20.1892 45.5064 20.286 45.6919 20.3134C45.8301 20.3227 45.8977 20.2984 45.8996 20.3077Z" fill="#263238"/>
<path d="M58.196 24.5249C57.8253 23.9618 57.275 23.5395 56.6339 23.3262C56.9894 23.3304 57.334 23.4495 57.6158 23.6657C57.8975 23.8819 58.1011 24.1835 58.196 24.5249Z" fill="#D1734A"/>
<path d="M53.5207 41.6335C53.1134 40.7204 52.9119 39.7294 52.9304 38.7303C53.1281 39.6978 53.3249 40.6656 53.5207 41.6335Z" fill="#D1734A"/>
<path d="M33.5402 38.1337C34.0894 37.9502 34.5728 37.6108 34.931 37.1573C35.2892 36.7037 35.5066 36.1557 35.5564 35.5807C35.6241 35.207 35.6136 34.8233 35.5256 34.4538C35.4376 34.0842 35.274 33.7368 35.045 33.4332C34.816 33.1295 34.5266 32.8763 34.1948 32.6893C33.863 32.5023 33.4961 32.3856 33.1169 32.3464C32.7378 32.3072 32.3546 32.3464 31.9914 32.4616C31.6282 32.5768 31.2927 32.7655 31.0061 33.0159C30.7194 33.2662 30.4877 33.5728 30.3255 33.9165C30.1633 34.2602 30.074 34.6335 30.0633 35.0132C29.9934 35.5912 30.0964 36.1769 30.3592 36.6969C30.6221 37.2169 31.0332 37.648 31.5409 37.9361C30.6595 37.9565 29.8041 38.2382 29.0842 38.7453C28.3642 39.2525 27.8124 39.962 27.4991 40.7831C28.3679 42.0029 29.6486 42.87 31.1067 43.2256L32.7986 43.4008C34.3206 43.3488 35.7711 42.7442 36.877 41.7009C36.7427 40.842 36.353 40.043 35.7581 39.407C35.1633 38.7711 34.3907 38.3276 33.5402 38.1337Z" fill="white"/>
<g opacity="0.3">
<path d="M21.0464 37.0389L22.4375 35.6097C22.4375 35.6097 21.8369 45.9453 21.4271 47.1872C21.0173 48.429 18.8657 52.5657 18.8657 52.5657L20.7221 46.9118L21.0464 37.0389Z" fill="black"/>
</g>
<path d="M21.3929 36.8119C22.9353 35.2128 24.1593 33.8911 24.1267 33.86C24.0941 33.8288 22.8174 35.0999 21.275 36.699C19.7326 38.2982 18.5086 39.6198 18.5411 39.651C18.5737 39.6822 19.8505 38.4111 21.3929 36.8119Z" fill="#263238"/>
<path d="M43.5733 33.0493C43.5831 33.1577 43.5786 33.2669 43.5601 33.3742C43.5413 33.5821 43.5056 33.8818 43.4558 34.2508C43.3552 34.9897 43.1879 36.0059 42.9557 37.1194C42.7235 38.233 42.4679 39.2322 42.2639 39.9487C42.1624 40.3074 42.0759 40.5958 42.0082 40.7916C41.9824 40.897 41.9429 40.9987 41.8907 41.0941C41.8955 40.9853 41.9145 40.8776 41.9471 40.7738L42.1521 39.9168C42.3269 39.1938 42.5628 38.1936 42.795 37.0829C43.0272 35.9722 43.2114 34.9616 43.3411 34.2293L43.4971 33.3621C43.5089 33.255 43.5345 33.1498 43.5733 33.0493Z" fill="#263238"/>
<path d="M37.2681 13.354C37.375 13.2622 37.5082 13.2065 37.6488 13.1949C37.7894 13.1832 37.9301 13.2161 38.0507 13.289C38.1713 13.3619 38.2658 13.4709 38.3204 13.6005C38.3751 13.73 38.3872 13.8735 38.355 14.0104C38.3228 14.1472 38.248 14.2704 38.1412 14.3623C38.0345 14.4542 37.9013 14.5101 37.7607 14.5219C37.6201 14.5338 37.4794 14.501 37.3587 14.4284C37.2379 14.3557 37.1434 14.2468 37.0885 14.1173C37.0553 14.0309 37.0396 13.9389 37.0421 13.8465C37.0447 13.7541 37.0656 13.6631 37.1036 13.5788C37.1416 13.4945 37.196 13.4185 37.2635 13.3551C37.3311 13.2918 37.4106 13.2424 37.4974 13.2098" fill="#E8505B"/>
<path d="M37.3329 12.6572C37.4147 12.6638 37.3414 13.206 37.754 13.6555C38.1667 14.1051 38.7541 14.1238 38.7485 14.2006C38.7485 14.2353 38.6047 14.2886 38.3584 14.2615C38.0391 14.2221 37.7439 14.0719 37.5247 13.8372C37.3145 13.6116 37.2006 13.3134 37.207 13.0056C37.2173 12.7743 37.2963 12.6488 37.3329 12.6572Z" fill="#263238"/>
<path d="M30.3801 4.57309C30.7388 4.13042 30.9698 3.59883 31.0484 3.03531C31.0498 2.63162 30.9033 2.24131 30.6365 1.93752C30.3696 1.63374 30.0008 1.43734 29.599 1.38514C29.1945 1.35754 28.7928 1.46996 28.462 1.7034C28.1311 1.93685 27.8912 2.277 27.783 2.66631C27.6949 3.06085 27.7381 3.47325 27.9062 3.84112C28.0742 4.20899 28.358 4.5123 28.7145 4.70515C29.079 4.88271 29.4892 4.94504 29.8902 4.88378C30.2912 4.82251 30.6639 4.64059 30.9582 4.36238" fill="#263238"/>
<path d="M31.0982 2.95288C31.11 3.3579 30.9973 3.75684 30.7752 4.09628C30.5532 4.43572 30.2323 4.69946 29.8556 4.85217C30.4735 4.37733 30.9116 3.70779 31.0982 2.95288Z" fill="#455A64"/>
<path d="M30.132 4.69105C30.2133 3.50851 29.846 2.33866 29.1027 1.41319C29.1159 1.39914 29.2785 1.52276 29.4862 1.77843C30.0231 2.45924 30.2907 3.31263 30.2382 4.17688C30.2405 4.3539 30.2042 4.52932 30.132 4.69105Z" fill="#455A64"/>
<path d="M41.1792 61.8093C45.5725 61.8093 49.134 58.2607 49.134 53.8834C49.134 49.5061 45.5725 45.9575 41.1792 45.9575C36.7859 45.9575 33.2244 49.5061 33.2244 53.8834C33.2244 58.2607 36.7859 61.8093 41.1792 61.8093Z" fill="#5D5A88"/>
<g opacity="0.3">
<path d="M46.8042 59.4884C49.9107 56.3931 49.9107 51.3747 46.8042 48.2795C43.6976 45.1842 38.6609 45.1842 35.5544 48.2795C32.4479 51.3747 32.4479 56.3931 35.5544 59.4884C38.6609 62.5836 43.6976 62.5836 46.8042 59.4884Z" fill="black"/>
</g>
<path d="M41.1792 60.338C45.5725 60.338 49.134 56.7894 49.134 52.4121C49.134 48.0347 45.5725 44.4862 41.1792 44.4862C36.7859 44.4862 33.2244 48.0347 33.2244 52.4121C33.2244 56.7894 36.7859 60.338 41.1792 60.338Z" fill="#5D5A88"/>
<path d="M41.1792 57.1004C41.4045 57.1004 41.5871 55.0014 41.5871 52.4121C41.5871 49.8228 41.4045 47.7238 41.1792 47.7238C40.9539 47.7238 40.7713 49.8228 40.7713 52.4121C40.7713 55.0014 40.9539 57.1004 41.1792 57.1004Z" fill="white"/>
<path d="M41.1792 52.8186C43.7779 52.8186 45.8846 52.6366 45.8846 52.4121C45.8846 52.1877 43.7779 52.0057 41.1792 52.0057C38.5805 52.0057 36.4738 52.1877 36.4738 52.4121C36.4738 52.6366 38.5805 52.8186 41.1792 52.8186Z" fill="white"/>
</g>
<defs>
<clipPath id="clip0_5_2812">
<rect width="123" height="137.874" fill="white"/>
</clipPath>
</defs>
</svg>
