<svg width="123" height="117" viewBox="0 0 123 117" fill="none" xmlns="http://www.w3.org/2000/svg">
<g clip-path="url(#clip0_5_2944)">
<path d="M75.3416 106.483C75.3416 106.483 100.893 107.673 117.03 78.6318C133.168 49.5909 114.177 22.8296 84.8208 17.0479C55.4648 11.2661 40.836 -10.4402 14.6616 6.14515C-11.5128 22.7305 3.0176 111.208 75.3416 106.483Z" fill="#1D1752"/>
<path opacity="0.4" d="M75.4072 106.516C75.4072 106.516 100.958 107.706 117.096 78.6648C133.234 49.6239 114.242 22.8296 84.8536 17.0479C55.4648 11.2661 40.8688 -10.4072 14.6944 6.17819C-11.48 22.7636 3.0832 111.241 75.4072 106.516Z" fill="white"/>
<path d="M76.2272 14.3718L76.0632 15.8916L76.8832 16.1889C76.8895 16.7016 76.9555 17.2116 77.08 17.7087L76.3584 18.2373L76.9488 19.625L77.8016 19.4598C78.0704 19.9031 78.3896 20.3134 78.7528 20.6822L78.392 21.4751L79.6056 22.4002L80.2616 21.8385C80.7071 22.0915 81.1805 22.2911 81.672 22.4332L81.7704 23.2922L83.2792 23.4574L83.5744 22.6315C84.0833 22.6252 84.5897 22.5586 85.0832 22.4332L85.608 23.127L87.0184 22.5654L86.8544 21.7064C87.2946 21.4357 87.7019 21.1141 88.068 20.7483L88.8552 21.1117L89.7736 19.8893L89.216 19.2285C89.4677 18.78 89.6658 18.3032 89.8064 17.8078L90.6592 17.7087L90.8232 16.1889L90.0032 15.8916C89.9963 15.379 89.9303 14.869 89.8064 14.3718L90.528 13.8432L89.9376 12.4556L89.0848 12.6208C88.8163 12.1772 88.497 11.7669 88.1336 11.3983L88.4944 10.6054L87.248 9.68034L86.592 10.242C86.1469 9.98824 85.6734 9.78861 85.1816 9.6473L85.0832 8.7883L83.5744 8.62311L83.2792 9.44907C82.7691 9.46707 82.2627 9.54468 81.7704 9.68034L81.2456 8.95349L79.868 9.54819L80.032 10.4072C79.5935 10.6676 79.1863 10.978 78.8184 11.3323L78.0312 10.9688L77.1128 12.1913L77.6704 12.852C77.4193 13.3008 77.2212 13.7776 77.08 14.2727L76.2272 14.3718ZM79.704 15.5942C79.7878 14.8456 80.0908 14.1389 80.5743 13.5641C81.0578 12.9892 81.7 12.5721 82.4194 12.3659C83.1388 12.1596 83.9029 12.1734 84.6145 12.4055C85.3261 12.6377 85.9531 13.0777 86.4158 13.6696C86.8785 14.2616 87.1561 14.9787 87.2132 15.7299C87.2703 16.4812 87.1044 17.2325 86.7366 17.8885C86.3688 18.5446 85.8156 19.0756 85.1474 19.4142C84.4792 19.7528 83.7262 19.8837 82.984 19.7902C81.9992 19.6661 81.1027 19.156 80.4887 18.3706C79.8747 17.5852 79.5928 16.5876 79.704 15.5942Z" stroke="#1D1752" stroke-linejoin="round"/>
<path d="M37.0312 51.6063L36.8672 52.9609L37.6216 53.2252C37.6324 53.694 37.6984 54.1598 37.8184 54.6128L37.1624 55.0754L37.6872 56.3639L38.4744 56.2317C38.7162 56.6269 39.0023 56.9927 39.3272 57.322L38.9992 58.0488L40.1144 58.9078L40.7048 58.4123C41.1093 58.638 41.5386 58.8155 41.984 58.9409L42.0824 59.7338L43.4272 59.899L43.6896 59.1391C44.155 59.1283 44.6174 59.0617 45.0672 58.9409L45.5264 59.5686L46.7728 59.04L46.6744 58.2471C47.0667 58.0035 47.4299 57.7153 47.7568 57.3881L48.4784 57.7184L49.2984 56.6282L48.8064 56.0335C49.0308 55.6262 49.207 55.1937 49.3312 54.745L50.1184 54.6459L50.2824 53.2913L49.528 53.027C49.5166 52.5583 49.4506 52.0925 49.3312 51.6393L49.9872 51.1768L49.4624 49.8883L48.6752 50.0205C48.4337 49.6251 48.1475 49.2592 47.8224 48.9302L48.1504 48.2033L47.0352 47.3774L46.4448 47.906C46.0406 47.6796 45.6112 47.5022 45.1656 47.3774L45.0672 46.5844L43.7224 46.4193L43.46 47.1791C42.9947 47.1909 42.5324 47.2574 42.0824 47.3774L41.6232 46.7166L40.344 47.2452L40.4752 48.0381C40.0829 48.2817 39.7197 48.5699 39.3928 48.8971L38.6712 48.5668L37.8512 49.6901L38.3432 50.2848C38.119 50.6922 37.9429 51.1246 37.8184 51.5733L37.0312 51.6063ZM40.18 52.6966C40.2562 52.0205 40.53 51.3824 40.9667 50.8633C41.4033 50.3441 41.9832 49.9672 42.6327 49.7803C43.2823 49.5935 43.9723 49.6051 44.6152 49.8137C45.2582 50.0223 45.8252 50.4185 46.2444 50.9521C46.6636 51.4857 46.9161 52.1326 46.9698 52.8109C47.0235 53.4892 46.8761 54.1683 46.5463 54.7621C46.2164 55.3559 45.719 55.8376 45.117 56.1463C44.515 56.455 43.8356 56.5767 43.1648 56.496C42.2699 56.3883 41.4537 55.9283 40.8944 55.2164C40.3352 54.5045 40.0783 53.5986 40.18 52.6966Z" fill="black"/>
<path d="M106.403 85.2726V82.167L104.665 81.7705C104.525 80.7185 104.26 79.687 103.878 78.6979L105.19 77.4755L103.648 74.7663L101.942 75.295C101.299 74.463 100.561 73.7091 99.7448 73.0483L100.27 71.3303L97.58 69.7775L96.3992 71.066C95.4288 70.6729 94.4161 70.3957 93.3816 70.2401L92.988 68.489H89.9048L89.5112 70.2401C88.4667 70.3812 87.4427 70.6474 86.4608 71.033L85.2472 69.7114L82.5904 71.2643L83.1152 72.9823C82.2893 73.6308 81.5408 74.3736 80.8848 75.1958L79.1792 74.6672L77.6376 77.3434L78.9168 78.5658C78.5256 79.5429 78.2504 80.5632 78.0968 81.6053L76.3584 82.0018V85.1074L78.0968 85.5039C78.2385 86.5557 78.5027 87.587 78.884 88.5765L77.572 89.7989L79.1136 92.5081L80.8192 91.9795C81.4728 92.8137 82.2214 93.5677 83.0496 94.2261L82.5248 95.9441L85.2144 97.4969L86.428 96.1754C87.3979 96.57 88.4108 96.8472 89.4456 97.0013L89.8392 98.7524H92.9224L93.316 97.0013C94.3615 96.8477 95.3853 96.5704 96.3664 96.1754L97.58 97.4969L100.27 95.9441L99.7448 94.2261C100.571 93.5775 101.319 92.8347 101.975 92.0125L103.681 92.5411L105.222 89.8319L103.943 88.6095C104.333 87.632 104.608 86.6119 104.763 85.57L106.403 85.2726ZM101.057 83.6537C101.057 85.5814 100.489 87.4657 99.4261 89.0685C98.3629 90.6713 96.8517 91.9205 95.0836 92.6582C93.3156 93.3959 91.3701 93.5889 89.4931 93.2128C87.6161 92.8368 85.892 91.9085 84.5388 90.5455C83.1856 89.1824 82.2641 87.4458 81.8907 85.5552C81.5174 83.6645 81.709 81.7049 82.4413 79.9239C83.1737 78.143 84.4139 76.6209 86.0051 75.5499C87.5963 74.479 89.4671 73.9073 91.3808 73.9073C93.947 73.9073 96.4082 74.9342 98.2228 76.762C100.037 78.5898 101.057 81.0688 101.057 83.6537Z" fill="white"/>
<path d="M52.7424 8.06146H44.8048V9.90832H52.7424V8.06146Z" fill="#8CC640"/>
<path d="M50.02 10.7375H44.8048V12.5844H50.02V10.7375Z" fill="#8CC640"/>
<path d="M47.8224 13.4137H44.8048V15.2606H47.8224V13.4137Z" fill="#8CC640"/>
<path opacity="0.9" d="M52.7424 8.06146H44.8048V9.90832H52.7424V8.06146Z" fill="white"/>
<path opacity="0.9" d="M50.02 10.7375H44.8048V12.5844H50.02V10.7375Z" fill="#8CC640"/>
<path opacity="0.9" d="M47.8224 13.4137H44.8048V15.2606H47.8224V13.4137Z" fill="white"/>
<path d="M33.7184 28.5123H31.0288V34.076H33.7184V28.5123Z" fill="#8CC640"/>
<path d="M37.5888 30.4286H34.8992V34.0827H37.5888V30.4286Z" fill="#8CC640"/>
<path d="M41.492 31.9814H38.8024V34.0859H41.492V31.9814Z" fill="#8CC640"/>
<path opacity="0.9" d="M33.7184 28.5123H31.0288V34.076H33.7184V28.5123Z" fill="white"/>
<path opacity="0.9" d="M37.5888 30.4286H34.8992V34.0827H37.5888V30.4286Z" fill="#8CC640"/>
<path opacity="0.2" d="M41.492 31.9814H38.8024V34.0859H41.492V31.9814Z" fill="black"/>
<path d="M63.0416 38.3248H30.4056C29.5009 38.3248 28.6332 37.9628 27.9935 37.3184C27.3538 36.674 26.9944 35.8001 26.9944 34.8888V7.73106C26.9944 6.81977 27.3538 5.94581 27.9935 5.30143C28.6332 4.65705 29.5009 4.29504 30.4056 4.29504H63.0416C63.9463 4.29504 64.814 4.65705 65.4537 5.30143C66.0934 5.94581 66.4528 6.81977 66.4528 7.73106V34.8888C66.4528 35.8001 66.0934 36.674 65.4537 37.3184C64.814 37.9628 63.9463 38.3248 63.0416 38.3248ZM30.4056 4.62543C29.5792 4.62543 28.7866 4.95611 28.2023 5.54472C27.6179 6.13334 27.2896 6.93167 27.2896 7.7641V34.9218C27.2896 35.7542 27.6179 36.5526 28.2023 37.1412C28.7866 37.7298 29.5792 38.0605 30.4056 38.0605H63.0416C63.868 38.0605 64.6606 37.7298 65.245 37.1412C65.8293 36.5526 66.1576 35.7542 66.1576 34.9218V7.73106C66.1576 6.89863 65.8293 6.1003 65.245 5.51169C64.6606 4.92307 63.868 4.59239 63.0416 4.59239L30.4056 4.62543Z" fill="#1D1752"/>
<path d="M62.648 28.6776H51.004V28.9782H62.648V28.6776Z" fill="black"/>
<path d="M62.648 29.933H51.004V30.2336H62.648V29.933Z" fill="black"/>
<path d="M62.648 31.1885H51.004V31.4891H62.648V31.1885Z" fill="black"/>
<path d="M62.648 32.4439H51.004V32.7446H62.648V32.4439Z" fill="black"/>
<path d="M62.648 33.6994H51.004V34.0001H62.648V33.6994Z" fill="black"/>
<path d="M42.312 8.1936H30.668V8.49425H42.312V8.1936Z" fill="black"/>
<path d="M42.312 9.44904H30.668V9.74969H42.312V9.44904Z" fill="black"/>
<path d="M42.312 10.7045H30.668V11.0052H42.312V10.7045Z" fill="black"/>
<path d="M42.312 11.96H30.668V12.2607H42.312V11.96Z" fill="black"/>
<path d="M42.312 13.2155H30.668V13.5161H42.312V13.2155Z" fill="black"/>
<path d="M60.352 18.3365L62.4512 19.4267L62.2216 13.5128L57.236 16.6845L59.3352 17.7748L57.7608 20.7813C57.4874 20.7837 57.2223 20.8765 57.0064 21.0456L54.2184 19.7571C54.2557 19.5753 54.2535 19.3875 54.212 19.2066C54.1705 19.0256 54.0907 18.8559 53.9781 18.7089C53.8654 18.562 53.7225 18.4413 53.5592 18.3552C53.3959 18.269 53.2161 18.2194 53.032 18.2098C52.8479 18.2001 52.6639 18.2307 52.4927 18.2993C52.3214 18.368 52.1669 18.4731 52.0397 18.6075C51.9125 18.7419 51.8157 18.9024 51.7558 19.078C51.6959 19.2536 51.6744 19.4402 51.6928 19.625C51.6894 19.6689 51.6894 19.7131 51.6928 19.7571C51.6893 19.9382 51.7228 20.1182 51.7912 20.2857L48.1832 24.2504L47.8224 24.1843H47.6256L42.4104 17.5766C42.5017 17.2744 42.4796 16.949 42.3483 16.6622C42.2171 16.3754 41.9858 16.1471 41.6984 16.0207C41.4111 15.8943 41.0877 15.8787 40.7896 15.9767C40.4915 16.0747 40.2396 16.2796 40.0816 16.5524C40.0158 16.7091 39.9823 16.8777 39.9832 17.0479C39.9854 17.1827 40.0075 17.3163 40.0488 17.4444L34.112 23.5565C33.8747 23.4676 33.6165 23.4515 33.3701 23.5105C33.1237 23.5694 32.9002 23.7007 32.728 23.8877C32.5557 24.0746 32.4425 24.3089 32.4025 24.5608C32.3626 24.8127 32.3977 25.0708 32.5035 25.3026C32.6094 25.5343 32.7811 25.7292 32.997 25.8625C33.2129 25.9959 33.4632 26.0617 33.7162 26.0516C33.9693 26.0415 34.2136 25.956 34.4184 25.8059C34.6231 25.6558 34.7791 25.4479 34.8664 25.2085C34.9129 25.0702 34.9351 24.9249 34.932 24.779C34.9339 24.6788 34.9229 24.5789 34.8992 24.4816L40.9016 18.2704L41.2624 18.3365H41.492L46.6744 24.9442C46.5947 25.1134 46.5526 25.298 46.551 25.4853C46.5494 25.6726 46.5883 25.8579 46.6651 26.0285C46.7419 26.1991 46.8546 26.3507 46.9955 26.4729C47.1364 26.5951 47.3021 26.6849 47.4809 26.736C47.6598 26.7871 47.8476 26.7984 48.0312 26.7689C48.2148 26.7395 48.3898 26.6701 48.5441 26.5656C48.6983 26.4611 48.8281 26.3239 48.9244 26.1637C49.0207 26.0035 49.0812 25.8241 49.1016 25.638C49.1048 25.594 49.1048 25.5498 49.1016 25.5058C49.0999 25.3711 49.0778 25.2374 49.036 25.1094L52.7424 21.0456H52.9392C53.1977 21.0458 53.4499 20.965 53.6608 20.8143L56.4816 22.1359C56.4834 22.34 56.5332 22.5408 56.6272 22.7218C56.7211 22.9027 56.8563 23.0585 57.0217 23.1765C57.1872 23.2944 57.3781 23.3711 57.5787 23.4001C57.7793 23.4292 57.9839 23.4098 58.1756 23.3436C58.3674 23.2774 58.5407 23.1662 58.6814 23.0193C58.8221 22.8724 58.9262 22.6938 58.985 22.4985C59.0438 22.3031 59.0556 22.0964 59.0196 21.8955C58.9835 21.6946 58.9006 21.5052 58.7776 21.343L60.352 18.3365Z" fill="black"/>
<path d="M63.14 41.8269C62.6268 41.8269 62.1345 42.0323 61.7716 42.3978C61.4087 42.7634 61.2048 43.2592 61.2048 43.7762V60.6919C61.2048 61.2089 61.4087 61.7047 61.7716 62.0703C62.1345 62.4358 62.6268 62.6412 63.14 62.6412H83.476C83.9893 62.6412 84.4815 62.4358 84.8444 62.0703C85.2073 61.7047 85.4112 61.2089 85.4112 60.6919V43.7762C85.4112 43.2592 85.2073 42.7634 84.8444 42.3978C84.4815 42.0323 83.9893 41.8269 83.476 41.8269H63.14Z" stroke="white" stroke-width="0.8" stroke-linejoin="round"/>
<path d="M64.3536 44.1066H62.812V44.3147H64.3536V44.1066Z" fill="black"/>
<path d="M64.3536 45.7915H62.812V45.9996H64.3536V45.7915Z" fill="black"/>
<path d="M64.3536 47.5095H62.812V47.7177H64.3536V47.5095Z" fill="black"/>
<path d="M64.3536 49.1945H62.812V49.4026H64.3536V49.1945Z" fill="black"/>
<path d="M64.288 45.7915H62.7464V45.9996H64.288V45.7915Z" fill="black"/>
<path d="M64.3536 50.9125H62.812V51.1206H64.3536V50.9125Z" fill="black"/>
<path d="M74.4888 60.0972C75.9558 60.1297 77.3994 59.7229 78.6367 58.9283C79.874 58.1337 80.8493 56.987 81.4392 55.6336C82.029 54.2803 82.2068 52.781 81.95 51.3257C81.6933 49.8705 81.0135 48.5247 79.9968 47.4589C78.9801 46.3931 77.6722 45.6553 76.2389 45.3388C74.8055 45.0223 73.3112 45.1414 71.9451 45.6811C70.579 46.2207 69.4027 47.1566 68.5651 48.3702C67.7275 49.5838 67.2663 51.0205 67.24 52.4984C67.2048 54.4731 67.9478 56.3815 69.3064 57.8057C70.665 59.2299 72.5284 60.0539 74.4888 60.0972ZM74.7512 47.3774C75.7889 47.3972 76.7975 47.7264 77.6494 48.3235C78.5013 48.9207 79.1583 49.7588 79.5374 50.732C79.9164 51.7052 80.0005 52.7698 79.7789 53.7911C79.5573 54.8125 79.0401 55.7447 78.2926 56.4699C77.545 57.1952 76.6008 57.6808 75.5793 57.8656C74.5577 58.0503 73.5047 57.9258 72.5534 57.5078C71.6022 57.0898 70.7953 56.397 70.2348 55.5171C69.6744 54.6372 69.3855 53.6097 69.4048 52.5644C69.4307 51.1682 70.004 49.839 70.9996 48.8671C71.9952 47.8952 73.3321 47.3597 74.7184 47.3774H74.7512Z" fill="#8CC640"/>
<path d="M69.3064 57.9828C70.7164 59.4095 72.631 60.2143 74.6296 60.2205C76.6282 60.2267 78.5476 59.4338 79.9664 58.0158C79.9877 57.9872 79.9992 57.9524 79.9992 57.9167C79.9992 57.8809 79.9877 57.8462 79.9664 57.8176L78.4248 56.2648H78.1952C77.71 56.7531 77.1311 57.1367 76.4939 57.3923C75.8567 57.6479 75.1744 57.7701 74.4888 57.7515H74.128C73.0164 57.6878 71.9562 57.2584 71.1104 56.5291L70.8808 56.3308C70.0173 55.4588 69.4877 54.3074 69.3856 53.08C69.2836 51.8527 69.6157 50.6285 70.3232 49.624H70.356L70.4544 49.4918C70.958 48.8465 71.6082 48.3325 72.3503 47.9933C73.0924 47.654 73.9046 47.4995 74.7184 47.5426C74.7381 47.5477 74.7588 47.5481 74.7787 47.5439C74.7986 47.5396 74.8173 47.5306 74.8332 47.5178C74.8491 47.505 74.8619 47.4886 74.8704 47.47C74.8789 47.4513 74.883 47.4309 74.8824 47.4104V45.2299C74.8832 45.1912 74.8704 45.1535 74.8465 45.1233C74.8225 45.0932 74.7888 45.0724 74.7512 45.0647C73.2607 45.0532 71.8002 45.4868 70.5541 46.3107C69.308 47.1345 68.3321 48.3117 67.7496 49.6938C67.1671 51.0758 67.0041 52.6006 67.2811 54.0759C67.5582 55.5511 68.2629 56.9106 69.3064 57.9828Z" fill="black"/>
<path d="M74.784 45.0316C76.7834 45.036 78.6992 45.8397 80.1107 47.266C81.5222 48.6924 82.3138 50.6248 82.3116 52.6387C82.3094 54.6526 81.5136 56.5833 80.0991 58.0066C78.6846 59.4299 76.767 60.2293 74.7676 60.2293C72.7682 60.2293 70.8506 59.4299 69.4361 58.0066C68.0215 56.5833 67.2258 54.6526 67.2236 52.6387C67.2214 50.6248 68.013 48.6924 69.4245 47.266C70.836 45.8397 72.7518 45.036 74.7512 45.0316H74.784ZM74.4888 59.9651C75.9207 59.9908 77.3281 59.5887 78.5334 58.8095C79.7387 58.0304 80.6878 56.909 81.261 55.587C81.8342 54.2651 82.0058 52.8017 81.7541 51.3815C81.5024 49.9614 80.8388 48.6482 79.8469 47.6077C78.8549 46.5671 77.5793 45.8458 76.1808 45.5348C74.7823 45.2239 73.3237 45.3371 71.9891 45.8603C70.6544 46.3835 69.5036 47.2932 68.6817 48.4746C67.8598 49.656 67.4038 51.0561 67.3712 52.4983C67.336 54.4381 68.0652 56.3128 69.3992 57.7122C70.7332 59.1116 72.5632 59.9217 74.4888 59.9651ZM74.7512 47.2452C75.8133 47.2715 76.8439 47.614 77.7129 48.2294C78.582 48.8449 79.2508 49.7058 79.6347 50.7036C80.0187 51.7014 80.1007 52.7914 79.8705 53.8361C79.6403 54.8808 79.1081 55.8334 78.341 56.5739C77.574 57.3143 76.6064 57.8094 75.5604 57.9966C74.5144 58.1839 73.4368 58.055 72.4634 57.6261C71.4901 57.1973 70.6646 56.4877 70.0911 55.5869C69.5175 54.6861 69.2217 53.6344 69.2408 52.5644C69.2536 51.85 69.4065 51.1452 69.6908 50.4905C69.975 49.8359 70.3851 49.2443 70.8972 48.7499C71.4094 48.2555 72.0136 47.8681 72.675 47.6098C73.3364 47.3516 74.042 47.2277 74.7512 47.2452ZM74.5544 57.7845C75.5597 57.8039 76.548 57.5227 77.3946 56.9763C78.2412 56.4299 78.9079 55.643 79.3105 54.7149C79.7131 53.7869 79.8334 52.7595 79.6564 51.7626C79.4793 50.7656 79.0127 49.844 78.3156 49.1141C77.6186 48.3843 76.7223 47.879 75.7402 47.6622C74.7581 47.4454 73.7342 47.5268 72.798 47.8961C71.8618 48.2654 71.0553 48.906 70.4805 49.737C69.9057 50.5679 69.5884 51.5519 69.5688 52.5644C69.5557 53.2369 69.6744 53.9055 69.9179 54.5318C70.1614 55.1582 70.525 55.73 70.988 56.2148C71.451 56.6996 72.0042 57.0877 72.6162 57.357C73.2281 57.6264 73.8867 57.7716 74.5544 57.7845Z" fill="black"/>
<path d="M36.408 68.8525V88.8739" stroke="black" stroke-width="0.88" stroke-linecap="round" stroke-linejoin="round"/>
<path d="M39.6224 76.4183H37.9168V87.8926H39.6224V76.4183Z" fill="black"/>
<path d="M42.0168 81.0767H40.3112V87.8662H42.0168V81.0767Z" fill="#8CC640"/>
<path d="M44.8704 72.6849H43.1648V87.8695H44.8704V72.6849Z" fill="white"/>
<path d="M49.5608 70.5044H47.8552V87.8761H49.5608V70.5044Z" fill="black"/>
<path d="M51.988 83.5876H50.2824V87.886H51.988V83.5876Z" fill="#8CC640"/>
<path d="M54.8416 77.6407H53.136V87.8992H54.8416V77.6407Z" fill="white"/>
<path d="M61.6968 79.1935H59.9912V87.8794H61.6968V79.1935Z" fill="black"/>
<path d="M64.124 72.4537H62.4184V87.8794H64.124V72.4537Z" fill="#8CC640"/>
<path d="M66.9776 75.8566H65.272V87.8761H66.9776V75.8566Z" fill="white"/>
<path d="M34.5712 85.2396H35.5224" stroke="black" stroke-width="0.88" stroke-linecap="round" stroke-linejoin="round"/>
<path d="M34.5712 82.7617H35.5224" stroke="black" stroke-width="0.88" stroke-linecap="round" stroke-linejoin="round"/>
<path d="M34.5712 80.2838H35.5224" stroke="black" stroke-width="0.88" stroke-linecap="round" stroke-linejoin="round"/>
<path d="M34.5712 77.8059H35.5224" stroke="black" stroke-width="0.88" stroke-linecap="round" stroke-linejoin="round"/>
<path d="M34.5712 75.328H35.5224" stroke="black" stroke-width="0.88" stroke-linecap="round" stroke-linejoin="round"/>
<path d="M34.5712 72.8501H35.5224" stroke="black" stroke-width="0.88" stroke-linecap="round" stroke-linejoin="round"/>
<path d="M34.5712 70.3723H35.5224" stroke="black" stroke-width="0.88" stroke-linecap="round" stroke-linejoin="round"/>
<path d="M35.2928 87.8827H68.1256" stroke="black" stroke-width="0.88" stroke-linecap="round" stroke-linejoin="round"/>
<path d="M33.2592 66.0772C32.6938 66.0772 32.1515 66.3035 31.7516 66.7062C31.3518 67.1089 31.1272 67.6552 31.1272 68.2247V87.8827C31.1272 88.4522 31.3518 88.9985 31.7516 89.4012C32.1515 89.8039 32.6938 90.0302 33.2592 90.0302H69.4704C70.0358 90.0302 70.5781 89.8039 70.9779 89.4012C71.3778 88.9985 71.6024 88.4522 71.6024 87.8827V68.2247C71.6024 67.6552 71.3778 67.1089 70.9779 66.7062C70.5781 66.3035 70.0358 66.0772 69.4704 66.0772H33.2592Z" stroke="white" stroke-width="0.8" stroke-linejoin="round"/>
<path d="M4.5592 110.019C4.5592 110.019 5.3136 115.106 3.4768 115.635C1.64 116.164 0.360799 115.47 0.131199 114.71C-0.0984008 113.95 1.5088 108.499 1.5088 108.499L4.5592 110.019Z" fill="white"/>
<path d="M36.4736 111.175L44.444 113.091C44.444 113.091 45.0344 113.455 44.9688 113.983C44.9032 114.512 41.2624 115.932 40.2456 116.098C39.2288 116.263 33.3248 117.056 32.5048 116.329C31.6848 115.602 33.4232 109.82 33.4232 109.82L36.4736 111.175Z" fill="white"/>
<path d="M22.0416 18.2373C22.0416 18.2373 23.1568 19.9553 23.1896 20.8143C23.2224 21.6733 23.0912 22.6645 23.616 23.1601C24.1408 23.6557 24.5344 24.2173 24.3376 24.4816L23.7144 25.2415C23.7144 25.2415 24.272 28.1489 23.5504 28.6775C22.8288 29.2061 20.7296 28.6775 20.7296 28.6775V30.5607C20.7296 30.5607 17.7448 29.5696 15.6456 29.7678L15.2848 25.7371C15.2848 25.7371 19.7784 17.0149 22.0416 18.2373Z" fill="white"/>
<path d="M40.4752 30.1312C40.4752 30.1312 40.2128 28.0828 41.1968 26.8274C41.1968 26.8274 40.016 26.6292 40.1472 26.1997C40.2784 25.7701 42.1152 26.3318 42.1152 26.3318L41.6232 25.3076C41.6232 25.3076 39.9176 24.746 40.1144 24.1843C40.3112 23.6226 42.8696 24.9772 42.8696 24.9772C42.8696 24.9772 41.3608 23.7218 41.5904 23.1931C41.82 22.6645 43.3288 22.6645 44.1488 25.4067L44.5752 24.8781C44.5752 24.8781 44.7064 21.7725 45.1328 21.6073C45.5592 21.4421 45.7888 21.9707 45.7888 23.7548C45.7888 23.7548 46.4448 24.5477 46.0184 25.2415C45.592 25.9353 44.608 27.4221 43.788 27.9837C42.968 28.5454 42.968 30.759 42.968 30.759L40.4752 30.1312Z" fill="white"/>
<path d="M14.0712 13.1824L14.4648 12.6868C14.4648 12.6868 18.696 10.8036 18.5648 10.2089C18.4336 9.61425 16.072 10.4402 15.6128 10.1098C15.1536 9.77945 16.0392 4.52631 15.6128 4.32808C15.1864 4.12985 14.6944 6.93813 14.6944 6.93813C14.6944 6.93813 14.0712 4.06377 13.612 4.12985C13.1528 4.19592 13.3496 7.10332 13.3496 7.10332C13.3496 7.10332 12.464 5.25316 12.1032 5.41835C11.7424 5.58354 12.2672 7.86321 12.2672 7.86321C12.2672 7.86321 11.6112 7.07028 11.3488 7.33459C11.4313 8.49738 11.7436 9.63187 12.2672 10.6715L11.3488 12.2243L14.0712 13.1824Z" fill="white"/>
<path d="M40.016 30.1312L42.9352 30.5277C42.9352 30.5277 40.8032 48.6989 40.18 50.9455C39.5568 53.1922 38.9992 54.8111 36.8344 54.9102C34.6696 55.0093 27.0928 48.5668 27.0928 48.5668L26.732 57.4872L27.224 61.1875C27.224 61.1875 17.9088 66.1103 8.4296 61.8152L8.6264 57.4872L5.2152 37.631L2.5256 28.215L11.2176 11.6627L14.3664 13.3146L8.8232 28.4132L10.3648 33.4351L12.1032 32.7413L14.0384 30.2634C14.0384 30.2634 17.2856 28.5454 21.4184 30.9242L22.0744 33.0056C22.0744 33.0056 26.896 33.369 35.0632 44.7673L40.016 30.1312Z" fill="#3853A4"/>
<path opacity="0.2" d="M19.2208 30.1312L19.5816 32.6752C19.5816 32.6752 22.304 34.4923 23.3536 35.087C23.3536 35.087 26.0104 52.0358 24.0424 55.3727L21.976 58.6435C21.976 58.6435 24.108 58.6435 25.0592 57.1568C25.0592 57.1568 23.8456 61.2536 20.6968 62.3439C20.6968 62.3439 25.5512 61.8483 27.224 61.1875L26.732 57.4872L27.5192 36.8711C27.5192 36.8711 28.2736 35.4835 22.0416 33.0056L21.1232 30.759L19.2208 30.1312Z" fill="black"/>
<path d="M22.0416 18.4686C22.0416 18.4686 23.0584 19.9554 23.1896 20.8144C23.3208 21.6734 22.96 22.5654 23.616 23.1601C24.272 23.7548 24.6 24.1513 24.3376 24.4817L23.7144 25.2415C23.7144 25.2415 23.9768 28.0829 23.5504 28.6776C23.124 29.2722 20.7296 28.6776 20.7296 28.6776V30.5608" stroke="black" stroke-width="0.5" stroke-linecap="round" stroke-linejoin="round"/>
<path d="M20.7296 25.1093C20.7296 25.1093 19.7784 22.6314 19.0568 23.2261C18.3352 23.8208 18.9912 27.0916 20.7296 26.3648" stroke="black" stroke-width="0.5" stroke-linecap="round" stroke-linejoin="round"/>
<path d="M20.4672 24.5477C20.4672 24.5477 21.5824 24.4486 20.8936 21.7724C20.2048 19.0963 21.7136 19.4597 23.3864 18.6999C25.0592 17.94 25.4528 16.5523 25.092 15.6933C24.7312 14.8343 24.1408 14.4048 22.0416 14.8013C22.0416 14.8013 19.7456 12.1252 17.5152 15.0656C17.5152 15.0656 12.5296 14.9995 11.1848 17.3783C9.84001 19.7571 11.6112 25.8692 14.2352 27.9176C16.8592 29.966 19.4176 28.3141 19.9424 26.3979C19.9424 26.3979 18.1712 25.4397 19.0568 23.1931C19.0568 23.2592 19.8768 22.9618 20.4672 24.5477Z" fill="black"/>
<path d="M4.9856 36.1443C4.9856 36.1443 17.056 27.323 27.5848 36.1443L26.732 57.4872L27.224 61.1875C27.224 61.1875 18.3352 65.3834 8.4296 61.8153L8.6264 57.4872L4.9856 36.1443Z" stroke="black" stroke-width="0.5" stroke-linecap="round" stroke-linejoin="round"/>
<path d="M11.9392 32.9395L14.0056 30.2634C14.0056 30.2634 18.0728 28.8427 21.3856 30.9241L22.0416 33.0056" stroke="black" stroke-width="0.5" stroke-linecap="round" stroke-linejoin="round"/>
<path d="M27.5848 36.1112L38.1136 48.3024" stroke="black" stroke-width="0.5" stroke-linecap="round" stroke-linejoin="round"/>
<path d="M27.0928 48.3355C27.0928 48.3355 34.0464 54.8771 36.8344 54.9432C39.6224 55.0093 40.0816 51.6393 40.0816 51.6393L42.9352 30.5607L40.016 30.1642L34.9976 44.7673" stroke="black" stroke-width="0.5" stroke-linecap="round" stroke-linejoin="round"/>
<path d="M42.8696 30.4946C42.8696 30.4946 43.2304 28.1158 44.1816 27.5872C45.1328 27.0586 46.248 24.9441 45.8872 24.3494C45.5264 23.7547 44.4112 25.704 43.4272 26.1005C42.4432 26.497 41.6232 28.3141 41.492 29.14" stroke="black" stroke-width="0.5" stroke-linecap="round" stroke-linejoin="round"/>
<path d="M45.592 24.2504C45.592 24.2504 45.592 21.5082 45.1 21.6403C44.608 21.7725 44.5424 25.2415 44.5424 25.2415" stroke="black" stroke-width="0.5" stroke-linecap="round" stroke-linejoin="round"/>
<path d="M44.1488 25.5719C44.1488 25.5719 43.8208 24.0191 42.9352 23.2922C42.0496 22.5654 41.4592 22.9618 41.5576 23.1931C41.656 23.4244 43.1976 25.5058 43.1648 26.1996" stroke="black" stroke-width="0.5" stroke-linecap="round" stroke-linejoin="round"/>
<path d="M42.6072 24.812C42.6072 24.812 40.1144 23.6557 40.1144 24.3495C40.1144 25.0433 41.6232 25.3076 41.6232 25.3076L42.1152 26.3318C42.1152 26.3318 40.016 25.671 40.1472 26.1997C40.2784 26.7283 41.1968 26.8274 41.1968 26.8274C41.1968 26.8274 40.18 27.8516 40.4752 30.1313" stroke="black" stroke-width="0.5" stroke-linecap="round" stroke-linejoin="round"/>
<path d="M25.7808 61.4518L26.404 65.912C26.404 65.912 32.2424 83.5216 33.128 86.9576C34.0136 90.3936 34.5056 98.1907 34.768 101.759C35.0304 105.327 37.064 111.34 37.064 111.34C37.064 111.34 36.8016 113.752 32.5048 113.388C32.5048 113.388 30.7336 106.252 28.8312 102.023C26.9288 97.7943 26.6664 91.4178 26.6664 91.4178L17.4168 74.3038C17.4168 74.3038 15.5144 84.2484 14.2352 87.9488C12.956 91.6491 3.9688 112.926 4.592 111.439C4.592 111.439 3.31281 112.199 0.656006 110.283C0.656006 110.283 2.55841 103.906 3.05041 100.47C3.54241 97.0344 6.232 89.1051 6.232 89.1051C6.232 89.1051 6.8552 74.1717 7.872 69.5793C7.872 69.5793 7.21601 64.5244 8.62641 60.9562C14.1764 62.7903 20.1356 62.9624 25.7808 61.4518Z" fill="black"/>
<path d="M12.3656 71.2973L16.4984 72.5197L17.0888 74.0065" stroke="white" stroke-width="0.5" stroke-linecap="round" stroke-linejoin="round"/>
<path d="M32.6032 112.86C32.6032 112.86 32.0456 115.701 32.5048 116.263C32.964 116.825 33.456 116.527 33.8168 116.527C34.1776 116.527 35.424 116.494 36.2112 116.428C37.8184 116.329 39.4584 116.329 41 115.833C42.3047 115.441 43.5513 114.875 44.7064 114.148C45.3296 113.719 44.7064 113.025 44.7064 113.025L37.0968 111.307" stroke="black" stroke-width="0.5" stroke-linecap="round" stroke-linejoin="round"/>
<path d="M32.5704 115.272C32.5704 115.272 41.1312 116.692 44.7064 113.058" stroke="black" stroke-width="0.5" stroke-linecap="round" stroke-linejoin="round"/>
<path d="M1.01681 110.019C1.01681 110.019 0.032806 113.422 0.164006 114.479C0.295206 115.536 1.3776 115.8 2.624 115.767C3.8704 115.734 4.3952 115.173 4.5592 114.314C4.7232 113.455 4.5592 110.712 4.5592 110.712" stroke="black" stroke-width="0.5" stroke-linecap="round" stroke-linejoin="round"/>
<path d="M0.164001 113.983L4.5592 114.347" stroke="black" stroke-width="0.5" stroke-linecap="round" stroke-linejoin="round"/>
<path d="M11.6768 11.7618L12.2672 10.6715C12.2672 10.6715 11.0536 7.69802 11.3488 7.3346C11.644 6.97117 12.3656 7.99537 12.3656 7.99537C12.3656 7.99537 11.644 5.64963 12.1032 5.4514C12.5624 5.25316 13.3824 7.43371 13.3824 7.43371C13.3824 7.43371 13.1528 4.26201 13.6448 4.12985C14.1368 3.9977 14.6944 7.13637 14.6944 7.13637C14.6944 7.13637 15.3176 4.32808 15.6456 4.29505C15.9736 4.26201 15.6456 10.0768 15.6456 10.0768C16.4 10.4402 18.6304 9.54818 18.5976 10.275C18.5648 11.0019 14.3336 12.7199 14.3336 12.7199L14.1368 13.0172" stroke="black" stroke-width="0.5" stroke-linecap="round" stroke-linejoin="round"/>
<path d="M4.9856 36.1112L2.5584 28.215L11.2176 11.6627L14.3664 13.3146L8.8232 28.3802L10.3648 33.402" stroke="black" stroke-width="0.5" stroke-linecap="round" stroke-linejoin="round"/>
<path d="M5.24799 26.9595C5.24799 26.9595 8.36399 26.9265 8.82319 28.3802C7.46393 28.3032 6.11677 28.6744 4.9856 29.4374" stroke="black" stroke-width="0.5" stroke-linecap="round" stroke-linejoin="round"/>
<path d="M15.5144 29.9V27.6203" stroke="black" stroke-width="0.5" stroke-linecap="round" stroke-linejoin="round"/>
<path opacity="0.2" d="M27.5192 42.5207L28.3064 47.7408C28.3064 47.7408 28.9296 44.3378 29.356 44.3378C29.7824 44.3378 29.356 48.3355 29.356 48.3355C29.356 48.3355 35.8832 54.2824 38.704 54.3155C38.704 54.3155 37.1296 55.4388 35.5552 54.6128C33.9808 53.7869 27.0928 48.3355 27.0928 48.3355L27.5192 42.5207Z" fill="black"/>
<path opacity="0.2" d="M13.8088 13.0503L7.83919 27.6203C7.83919 27.6203 5.7728 27.5873 4.9856 29.4705L8.16719 28.9088L9.2496 33.8646L10.3648 33.4351L8.82319 28.4132L14.3664 13.3146L13.8088 13.0503Z" fill="black"/>
<path d="M95.9728 38.6882L93.644 33.6333L84.3944 39.7785L92.004 53.3573L97.9408 49.9544L95.9728 38.6882Z" fill="white"/>
<path d="M103.582 82.3983C103.582 82.3983 105.058 86.5611 105.288 88.6095C105.518 90.6579 104.829 99.2149 104.993 101.561C105.157 103.906 106.403 110.944 106.403 110.944C106.403 110.944 100.204 115.503 98.236 114.016C98.236 114.016 102.598 110.448 103.058 109.027L101.647 99.3801L100.204 87.9818C100.204 87.9818 99.8432 85.603 99.3512 84.3806C98.8592 83.1581 98.9248 80.5481 98.9248 80.5481L103.582 82.3983Z" fill="white"/>
<path d="M103.451 82.0018C103.451 82.0018 105.058 86.396 105.452 89.5346C105.846 92.6733 104.698 99.8427 105.058 103.279C105.419 106.715 105.813 108.631 106.469 110.448L106.141 115.767H105.288L104.96 112.761C104.96 112.761 103.615 112.199 102.828 114.148C102.041 116.098 99.056 116.329 97.6128 115.206C97.6128 115.206 97.6128 114.347 98.6624 113.587C99.712 112.827 102.5 110.448 102.992 109.027C102.992 109.027 101.483 99.1158 101.122 95.9111C100.762 92.7063 100.204 86.8585 99.5152 84.9753C98.8264 83.0921 98.7936 80.3829 98.7936 80.3829" stroke="black" stroke-width="0.5" stroke-linecap="round" stroke-linejoin="round"/>
<path d="M106.141 109.49C106.141 109.49 101.975 114.049 98.4656 114.016" stroke="black" stroke-width="0.5" stroke-linecap="round" stroke-linejoin="round"/>
<path d="M98.2032 114.016C98.7819 114.074 99.3659 113.995 99.9088 113.785C100.86 113.455 104.238 111.803 105.911 109.721L106.436 110.316L106.174 115.668L105.321 115.8L104.993 112.794C104.993 112.794 103.91 112.298 103.189 113.521C102.467 114.743 101.975 115.602 100.729 115.899C99.4824 116.197 97.6456 115.239 97.6456 115.239C97.6456 115.239 97.3176 114.743 98.2032 114.016Z" fill="black"/>
<path d="M106.502 82.5304C106.887 83.978 107.358 85.4012 107.912 86.7924C108.666 88.5104 115.095 105.922 115.095 105.922C115.095 105.922 115.587 115.338 118.31 115.305C121.032 115.272 118.211 108.73 118.211 108.73L116.538 105.129C116.538 105.129 115.915 94.5895 115.128 90.691L111.782 81.6053L106.502 82.5304Z" fill="white"/>
<path d="M111.815 81.9027C111.815 81.9027 114.57 88.213 115.128 90.6909C115.686 93.1688 116.276 104.369 116.538 105.129C116.801 105.889 121.36 114.016 118.638 115.635C115.915 117.254 115.226 106.285 115.226 106.285C115.226 106.285 108.863 88.5104 107.912 86.7924C106.961 85.0744 105.911 80.1186 105.911 80.1186L111.815 81.9027Z" stroke="black" stroke-width="0.5" stroke-linecap="round" stroke-linejoin="round"/>
<path d="M119.162 111.472C119.162 111.472 118.966 113.686 118.244 113.983C117.522 114.281 115.915 111.803 115.915 111.803" stroke="black" stroke-width="0.5" stroke-linecap="round" stroke-linejoin="round"/>
<path d="M115.948 112.199C115.948 112.199 116.932 115.965 118.244 115.8C119.556 115.635 119.786 113.554 119.162 111.935C119.162 111.935 118.933 113.587 118.244 113.983C117.555 114.38 115.948 112.199 115.948 112.199Z" fill="black"/>
<path d="M104.337 49.1284C104.337 49.1284 107.65 53.6877 109.946 61.0223C112.242 68.3569 112.012 82.3983 112.012 82.3983C112.012 82.3983 103.451 85.1735 95.1528 81.6384L96.6616 49.9544C96.6616 49.9544 102.008 50.0865 104.337 49.1284Z" fill="black"/>
<path d="M100.04 16.0568C100.04 16.0568 97.4488 18.5016 97.1536 20.0875C96.9077 21.2052 96.5104 22.2835 95.9728 23.2922C96.2445 23.719 96.6478 24.044 97.1208 24.2173C97.1208 24.2173 97.2848 27.4881 98.236 27.7194L100.499 27.1247L100.729 28.5123L103.943 27.2899V25.4067L106.403 23.7878L105.518 19.5589L101.516 17.6757L100.04 16.0568Z" fill="white"/>
<path d="M96.6616 49.7231L96.3664 45.1638C96.3664 45.1638 94.2672 41.1992 94.9232 39.7455C95.5792 38.2918 100.073 32.3118 100.073 32.3118L99.6464 29.107L105.846 26.4309L106.141 29.107L105.386 29.6687L106.206 31.4528C106.206 31.4528 106.272 30.9242 107.682 33.6333C109.093 36.3425 114.538 45.9237 114.964 47.7738C115.39 49.624 106.534 56.0996 103.55 57.6524C103.55 57.6524 103.189 56.8925 99.6464 59.6347C98.7608 59.4695 97.4816 58.6435 97.2192 58.148C96.9568 57.6524 98.236 56.4299 98.236 56.4299C98.236 56.4299 99.0232 54.9432 100.368 56.1326H101.811L110.241 48.3355L106.01 42.1242L104.337 49.1284C104.337 49.1284 98.892 50.7473 96.6616 49.7231Z" fill="white"/>
<path d="M99.6464 29.107L100.106 32.3779L106.141 29.107L105.846 26.4309L99.6464 29.107Z" stroke="black" stroke-width="0.5" stroke-linecap="round" stroke-linejoin="round"/>
<path d="M100.106 32.3779C100.106 32.3779 94.628 39.1508 94.7592 40.4723C94.8904 41.7939 96.3664 45.1308 96.3664 45.1308L96.6616 49.9544C96.6616 49.9544 101.09 50.0866 104.304 49.0954L105.977 42.0912" stroke="black" stroke-width="0.5" stroke-linecap="round" stroke-linejoin="round"/>
<path d="M110.241 48.3355L101.746 35.4174C101.746 35.4174 100.926 32.4439 102.926 31.3867C104.927 30.3294 106.698 31.684 107.322 32.3778C107.945 33.0716 114.702 46.1879 115.03 47.7738C115.358 49.3597 108.207 55.67 104.074 57.355C104.074 57.355 102.205 58.4783 102.205 56.1656L110.241 48.3355Z" stroke="black" stroke-width="0.5" stroke-linecap="round" stroke-linejoin="round"/>
<path d="M106.141 31.4527L105.321 29.5365" stroke="black" stroke-width="0.5" stroke-linecap="round" stroke-linejoin="round"/>
<path d="M102.139 56.1656H100.434C100.434 56.1656 99.0888 54.9763 98.4656 56.1656C97.8424 57.355 97.0224 57.6193 97.2848 58.181C97.5472 58.7427 98.892 59.866 99.712 59.6677C100.532 59.4695 102.762 57.5863 102.762 57.5863" stroke="black" stroke-width="0.5" stroke-linecap="round" stroke-linejoin="round"/>
<path d="M99.4168 16.9158C99.4168 16.9158 97.416 18.6999 97.1864 19.658C96.9568 20.6161 97.0552 22.3011 95.9728 23.2592C95.9728 23.2592 96.0384 24.0521 97.1208 24.1843C97.1208 24.1843 97.6784 27.3229 98.236 27.6864C98.7936 28.0498 102.106 26.3318 103.418 25.638C103.751 25.4087 103.995 25.07 104.107 24.6798" stroke="black" stroke-width="0.5" stroke-linecap="round" stroke-linejoin="round"/>
<path d="M97.8752 25.1424C98.496 25.0422 99.0574 24.7123 99.4496 24.2173" stroke="black" stroke-width="0.5" stroke-linecap="round" stroke-linejoin="round"/>
<path d="M97.8752 20.6161C97.8752 20.6161 98.6624 20.1536 99.1216 20.9135" stroke="black" stroke-width="0.5" stroke-linecap="round" stroke-linejoin="round"/>
<path d="M98.2208 22.7984C98.3474 22.7919 98.439 22.5651 98.4252 22.2917C98.4115 22.0184 98.2977 21.802 98.171 21.8085C98.0444 21.815 97.9529 22.0418 97.9666 22.3151C97.9804 22.5885 98.0942 22.8048 98.2208 22.7984Z" fill="black"/>
<path d="M100.499 27.0917L100.762 28.6114" stroke="black" stroke-width="0.5" stroke-linecap="round" stroke-linejoin="round"/>
<path d="M103.058 22.0698C103.058 22.0698 103.55 21.1117 104.107 21.6733C104.665 22.235 105.682 24.845 102.894 24.2173C102.894 24.2173 102.697 25.8032 104.107 26.1996C105.518 26.5961 108.174 24.4155 108.273 20.6822C108.371 16.9488 104.796 14.4379 102.894 15.1647C102.894 15.1647 100.171 10.8367 97.4488 12.6868C94.7264 14.537 96.5632 17.3783 95.9728 18.0061C95.3824 18.6338 94.1688 18.0391 94.136 19.7571C94.1032 21.4751 96.9568 21.3099 96.9568 21.3099L97.3176 19.4267L99.6792 16.9488C99.6792 16.9488 99.1216 18.7329 100.073 20.3188C101.024 21.9046 103.058 22.0698 103.058 22.0698Z" fill="black"/>
<path d="M108.273 20.6822C108.273 20.6822 109.585 20.9795 109.454 22.7636C109.322 24.5477 106.338 28.9418 106.567 31.4858L114.21 45.8245C114.21 45.8245 117.654 45.1638 117.49 41.5956C117.326 38.0274 113.127 35.0209 113.947 32.3778C114.767 29.7347 117.949 23.061 113.422 19.2285C108.896 15.396 101.877 21.2769 101.877 21.2769L105.321 20.1536L108.273 20.6822Z" fill="black"/>
<path d="M95.6776 38.3909L93.644 33.6333L84.3944 39.7785L92.004 53.3573L96.6288 50.8134" stroke="black" stroke-width="0.5" stroke-linecap="round" stroke-linejoin="round"/>
<path d="M87.2808 46.5183C87.2808 46.5183 86.7888 45.4941 87.4448 44.8995C88.1008 44.3048 90.364 42.6198 90.3968 43.0493C90.4096 43.1492 90.4017 43.2508 90.3734 43.3475C90.3452 43.4442 90.2973 43.5339 90.2328 43.6109C89.5768 44.503 88.0024 45.9237 88.1008 46.0558C88.1992 46.188 90.9544 44.1396 91.2496 44.3378C91.5448 44.536 91.2824 44.6351 91.0528 44.8664C90.2635 45.5685 89.4309 46.2195 88.56 46.8157C88.56 46.8157 91.5776 45.6263 91.9712 45.8245C92.3648 46.0228 92.0696 46.0558 91.7088 46.254C90.8256 46.7336 89.9167 47.1638 88.9864 47.5425L89.7408 48.831C89.7408 48.831 88.3304 49.0623 87.2808 46.5183Z" fill="white" stroke="black" stroke-width="0.5" stroke-linecap="round" stroke-linejoin="round"/>
<path d="M103.746 25.1094L103.943 27.2569" stroke="black" stroke-width="0.5" stroke-linejoin="round"/>
</g>
<defs>
<clipPath id="clip0_5_2944">
<rect width="123" height="116.692" fill="white"/>
</clipPath>
</defs>
</svg>
